
<svg width="1440px" height="210px" viewBox="0 0 1440 210" version="1.1" xmlns="http://www.w3.org/2000/svg" xmlns:xlink="http://www.w3.org/1999/xlink">
    <defs>
        <polygon id="path-1" points="0 0 1440.421 0 1440.421 209.877 0 209.877"></polygon>
    </defs>
    <g id="Page-1" stroke="none" stroke-width="1" fill="none" fill-rule="evenodd">
        <g id="Desktop-HD" transform="translate(0.000000, -520.000000)">
            <g id="above-fold" transform="translate(-1.000000, 115.000000)">
                <g id="city-scape" transform="translate(0.000000, 405.000000)">
                    <mask id="mask-2" fill="white">
                        <use xlink:href="#path-1"></use>
                    </mask>
                    <g id="Clip-2"></g>
                    <path d="M1077.503,87.658 L1079.183,87.658 L1079.183,86.191 L1077.503,86.191 L1077.503,87.658 Z M1077.503,90.907 L1079.183,90.907 L1079.183,89.44 L1077.503,89.44 L1077.503,90.907 Z M387.282,67.716 L388.963,67.716 L388.963,66.249 L387.282,66.249 L387.282,67.716 Z M387.282,70.964 L388.963,70.964 L388.963,69.498 L387.282,69.498 L387.282,70.964 Z M1408.331,77.983 L1407.809,77.983 L1406.848,77.983 L1406.848,80.393 L1389.513,80.393 L1389.513,83.607 L1383.729,81.1 L1383.729,84.609 L1383.729,84.786 L1383.729,85.247 L1383.729,86.488 L1383.729,88.873 L1383.729,89.05 L1383.729,89.511 L1383.729,90.751 L1383.729,93.137 L1383.729,93.315 L1383.729,93.776 L1383.729,95.016 L1383.729,97.402 L1383.729,97.578 L1383.729,98.039 L1383.729,99.279 L1383.729,101.665 L1383.729,101.843 L1383.729,102.303 L1383.729,103.544 L1383.729,105.93 L1383.729,106.107 L1383.729,106.568 L1383.729,107.808 L1383.729,110.159 L1357.102,110.159 L1357.102,71.235 L1350.56,71.235 L1350.56,65.687 L1343.407,65.687 L1343.407,60.844 L1343.473,60.844 C1343.745,60.844 1343.966,60.649 1343.966,60.408 C1343.966,60.169 1343.745,59.974 1343.473,59.974 L1343.407,59.974 L1332.008,50.793 L1332.119,50.793 L1332.119,48.213 L1329.94,48.213 L1329.338,36.743 C1329.296,36.745 1329.257,36.749 1329.214,36.749 C1329.21,36.749 1329.206,36.748 1329.202,36.748 L1328.6,48.213 L1326.42,48.213 L1326.42,50.793 L1315.021,59.974 L1314.955,59.974 C1314.683,59.974 1314.462,60.169 1314.462,60.408 C1314.462,60.649 1314.683,60.844 1314.955,60.844 L1315.021,60.844 L1315.021,65.687 L1308.65,65.687 L1308.65,90.934 L1308.599,90.934 L1308.599,71.235 L1302.057,71.235 L1302.057,91.572 L1286.75,91.572 L1286.75,87.072 L1281.582,87.072 L1281.582,82.087 L1277.593,82.087 L1277.593,69.267 L1275.645,69.267 L1275.645,82.087 L1273.697,82.087 L1273.697,73.718 L1271.749,73.718 L1271.749,82.087 L1225.355,82.087 L1225.355,87.072 L1220.188,87.072 L1220.188,114.365 L1189.048,114.365 L1189.048,111.852 L1189.048,110.401 L1189.048,109.862 L1189.048,109.654 L1189.048,106.863 L1189.048,105.412 L1189.048,104.874 L1189.048,104.666 L1189.048,101.876 L1189.048,100.425 L1189.048,99.886 L1189.048,99.679 L1189.048,96.889 L1189.048,95.438 L1189.048,94.899 L1189.048,94.692 L1189.048,91.901 L1189.048,90.449 L1189.048,89.911 L1189.048,89.704 L1189.048,86.913 L1189.048,85.462 L1189.048,84.923 L1189.048,84.716 L1189.048,81.926 L1189.048,80.475 L1189.048,79.936 L1189.048,79.729 L1189.048,76.939 L1189.048,75.488 L1189.048,74.948 L1189.048,74.741 L1189.048,71.95 L1189.048,70.5 L1189.048,69.96 L1189.048,69.753 L1189.048,66.963 L1189.048,65.512 L1189.048,64.973 L1189.048,64.766 L1189.048,60.661 L1189.048,60.639 L1184.542,60.639 L1184.542,56.903 L1181.33,56.903 L1181.33,54.084 L1175.417,56.59 L1174.669,56.59 L1174.669,59.409 L1161.163,59.409 L1161.163,63.168 L1156.657,63.168 L1156.657,67.273 L1156.657,67.48 L1156.657,68.019 L1156.657,69.47 L1156.657,72.26 L1156.657,72.467 L1156.657,73.006 L1156.657,74.457 L1156.657,77.247 L1156.657,77.454 L1156.657,77.994 L1156.657,79.445 L1156.657,82.236 L1156.657,82.443 L1156.657,82.981 L1156.657,84.041 L1137.95,78.302 L1137.458,78.302 L1113.939,85.517 L1113.939,84.409 L1112.486,84.409 L1112.486,82.944 L1113.939,82.944 L1113.939,81.161 L1112.486,81.161 L1112.486,79.695 L1113.939,79.695 L1113.939,77.912 L1112.486,77.912 L1112.486,76.446 L1113.939,76.446 L1113.939,74.663 L1112.486,74.663 L1112.486,73.197 L1113.939,73.197 L1113.939,71.414 L1112.486,71.414 L1112.486,69.947 L1113.939,69.947 L1113.939,68.165 L1112.486,68.165 L1112.486,66.698 L1113.939,66.698 L1113.939,64.916 L1112.486,64.916 L1112.486,63.449 L1113.939,63.449 L1113.939,61.667 L1112.486,61.667 L1112.486,60.201 L1113.939,60.201 L1113.939,58.419 L1112.486,58.419 L1112.486,56.952 L1113.939,56.952 L1113.939,55.17 L1112.486,55.17 L1112.486,53.703 L1113.939,53.703 L1113.939,51.921 L1112.486,51.921 L1112.486,49.347 L1106.824,49.347 L1106.824,41.128 L1104.589,41.128 L1104.589,32.712 L1102.019,33.106 L1102.019,31.128 L1089.055,31.128 L1089.055,35.091 L1086.484,35.485 L1086.484,41.128 L1084.249,41.128 L1084.249,49.347 L1079.183,49.347 L1079.183,51.921 L1077.283,51.921 L1077.283,53.703 L1079.183,53.703 L1079.183,55.17 L1077.283,55.17 L1077.283,56.952 L1079.183,56.952 L1079.183,58.419 L1077.283,58.419 L1077.283,60.201 L1079.183,60.201 L1079.183,61.667 L1077.283,61.667 L1077.283,63.449 L1079.183,63.449 L1079.183,64.916 L1077.283,64.916 L1077.283,66.698 L1079.183,66.698 L1079.183,68.165 L1077.283,68.165 L1077.283,69.947 L1079.183,69.947 L1079.183,71.414 L1077.283,71.414 L1077.283,73.197 L1079.183,73.197 L1079.183,74.663 L1077.283,74.663 L1077.283,76.446 L1079.183,76.446 L1079.183,77.912 L1077.283,77.912 L1077.283,79.695 L1079.183,79.695 L1079.183,81.161 L1077.283,81.161 L1077.283,82.944 L1079.183,82.944 L1079.183,84.409 L1077.503,84.409 L1077.503,83.144 L1074.905,83.144 L1074.905,91.01 L1043.948,91.01 L1043.948,64.479 L1037.677,64.479 L1037.677,48.167 L1037.581,48.167 L1027.366,37.619 L1024.861,37.619 L1024.861,29.247 L1024.802,29.247 L1023.852,21.501 L1023.833,21.501 L1022.883,29.247 L1022.822,29.247 L1022.822,37.619 L1020.318,37.619 L1010.104,48.167 L1010.007,48.167 L1010.007,64.479 L1003.735,64.479 L1003.735,78.648 L974.736,78.648 L974.736,76.732 L974.736,75.098 L974.736,72.503 L974.736,70.868 L974.736,68.274 L974.736,66.639 L974.736,64.044 L974.736,62.41 L974.736,59.815 L974.736,58.181 L974.736,55.586 L974.736,53.951 L974.736,51.357 L974.736,49.722 L974.736,47.127 L974.736,45.493 L974.736,42.899 L974.736,32.219 L970.114,32.219 C969.939,30.377 968.207,28.925 966.071,28.925 L963.806,28.925 L963.806,19.943 L962.899,19.943 L962.899,28.925 L960.634,28.925 C958.498,28.925 956.766,30.377 956.59,32.219 L951.969,32.219 L951.969,62.53 L939.848,75.981 L939.848,96.59 L918.812,96.59 L918.812,69.527 L912.051,69.527 L912.051,64.908 L912.139,64.908 C912.399,64.908 912.609,64.723 912.609,64.494 C912.609,64.265 912.399,64.079 912.139,64.079 L912.051,64.079 L883.664,64.079 L883.576,64.079 C883.316,64.079 883.105,64.265 883.105,64.494 C883.105,64.723 883.316,64.908 883.576,64.908 L883.664,64.908 L883.664,69.527 L876.903,69.527 L876.903,111.124 L840.493,111.124 L840.493,77.447 L820.489,77.447 L820.489,37.56 L791.012,17.154 L791.012,77.447 L771.009,77.447 L771.009,54.257 L737.319,54.257 L737.319,41.271 L733.108,41.271 L733.108,54.257 L703.63,54.257 L703.63,31.068 L696.261,31.068 L696.261,54.257 L684.68,54.257 L684.68,20.863 L649.938,20.863 L649.938,67.243 L614.144,67.243 L614.144,91.181 L589.562,91.181 L589.562,49.583 L582.801,49.583 L582.801,44.965 L582.889,44.965 C583.149,44.965 583.359,44.78 583.359,44.551 C583.359,44.322 583.149,44.136 582.889,44.136 L582.801,44.136 L578.487,44.136 L578.487,36.672 L574.753,36.672 L570.463,33.271 L568.283,33.271 L567.681,22.338 C567.677,22.338 567.673,22.339 567.669,22.339 C567.626,22.339 567.587,22.335 567.545,22.334 L566.942,33.271 L564.763,33.271 L560.473,36.672 L556.738,36.672 L556.738,44.136 L554.414,44.136 L554.326,44.136 C554.066,44.136 553.855,44.322 553.855,44.551 C553.855,44.78 554.066,44.965 554.326,44.965 L554.414,44.965 L554.414,49.583 L547.653,49.583 L547.653,76.647 L526.618,76.647 L526.618,56.037 L514.497,42.588 L514.497,12.276 L509.875,12.276 C509.699,10.434 507.968,8.983 505.831,8.983 L503.565,8.983 L503.565,-0.001 L502.66,-0.001 L502.66,8.983 L500.395,8.983 C498.259,8.983 496.526,10.434 496.351,12.276 L491.729,12.276 L491.729,22.955 L491.729,25.55 L491.729,27.184 L491.729,29.78 L491.729,31.413 L491.729,34.008 L491.729,35.643 L491.729,38.238 L491.729,39.872 L491.729,42.467 L491.729,44.101 L491.729,46.697 L491.729,48.33 L491.729,50.925 L491.729,52.56 L491.729,55.155 L491.729,56.789 L491.729,58.705 L462.729,58.705 L462.729,44.535 L456.458,44.535 L456.458,28.224 L456.361,28.224 L446.146,17.677 L443.643,17.677 L443.643,9.304 L443.583,9.304 L442.632,1.558 L442.614,1.558 L441.664,9.304 L441.604,9.304 L441.604,17.677 L439.1,17.677 L428.885,28.224 L428.788,28.224 L428.788,44.535 L422.517,44.535 L422.517,71.067 L391.56,71.067 L391.56,63.2 L388.963,63.2 L388.963,64.467 L387.282,64.467 L387.282,63 L389.183,63 L389.183,61.218 L387.282,61.218 L387.282,59.751 L389.183,59.751 L389.183,57.969 L387.282,57.969 L387.282,56.502 L389.183,56.502 L389.183,54.72 L387.282,54.72 L387.282,53.253 L389.183,53.253 L389.183,51.471 L387.282,51.471 L387.282,50.004 L389.183,50.004 L389.183,48.222 L387.282,48.222 L387.282,46.755 L389.183,46.755 L389.183,44.974 L387.282,44.974 L387.282,43.507 L389.183,43.507 L389.183,41.725 L387.282,41.725 L387.282,40.258 L389.183,40.258 L389.183,38.476 L387.282,38.476 L387.282,37.009 L389.183,37.009 L389.183,35.227 L387.282,35.227 L387.282,33.76 L389.183,33.76 L389.183,31.978 L387.282,31.978 L387.282,29.404 L382.216,29.404 L382.216,21.185 L379.981,21.185 L379.981,15.541 L377.411,15.148 L377.411,11.185 L364.446,11.185 L364.446,13.163 L361.876,12.769 L361.876,21.185 L359.641,21.185 L359.641,29.404 L353.979,29.404 L353.979,31.978 L352.525,31.978 L352.525,33.76 L353.979,33.76 L353.979,35.227 L352.525,35.227 L352.525,37.009 L353.979,37.009 L353.979,38.476 L352.525,38.476 L352.525,40.258 L353.979,40.258 L353.979,41.725 L352.525,41.725 L352.525,43.507 L353.979,43.507 L353.979,44.974 L352.525,44.974 L352.525,46.755 L353.979,46.755 L353.979,48.222 L352.525,48.222 L352.525,50.004 L353.979,50.004 L353.979,51.471 L352.525,51.471 L352.525,53.253 L353.979,53.253 L353.979,54.72 L352.525,54.72 L352.525,56.502 L353.979,56.502 L353.979,57.969 L352.525,57.969 L352.525,59.751 L353.979,59.751 L353.979,61.218 L352.525,61.218 L352.525,63 L353.979,63 L353.979,64.467 L352.525,64.467 L352.525,65.574 L329.007,58.36 L328.515,58.36 L309.808,64.098 L309.808,63.038 L309.808,62.499 L309.808,62.292 L309.808,59.502 L309.808,58.051 L309.808,57.512 L309.808,57.304 L309.808,54.514 L309.808,53.063 L309.808,52.525 L309.808,52.317 L309.808,49.527 L309.808,48.075 L309.808,47.536 L309.808,47.329 L309.808,43.225 L305.303,43.225 L305.303,39.466 L291.797,39.466 L291.797,36.648 L291.048,36.648 L285.136,36.648 L285.136,39.466 L281.924,39.466 L281.924,43.203 L277.418,43.203 L277.418,43.225 L277.418,47.329 L277.418,47.536 L277.418,48.075 L277.418,49.527 L277.418,52.317 L277.418,52.525 L277.418,53.063 L277.418,54.514 L277.418,57.304 L277.418,57.512 L277.418,58.051 L277.418,59.502 L277.418,62.292 L277.418,62.499 L277.418,63.038 L277.418,64.489 L277.418,67.28 L277.418,67.487 L277.418,68.026 L277.418,69.477 L277.418,72.267 L277.418,72.474 L277.418,73.013 L277.418,74.464 L277.418,77.255 L277.418,77.462 L277.418,78 L277.418,79.451 L277.418,82.242 L277.418,82.449 L277.418,82.988 L277.418,84.44 L277.418,87.23 L277.418,87.438 L277.418,87.976 L277.418,89.427 L277.418,92.217 L277.418,92.425 L277.418,92.964 L277.418,94.414 L277.418,96.929 L246.277,96.929 L246.277,69.636 L241.109,69.636 L241.109,64.651 L194.716,64.651 L194.716,56.281 L192.769,56.281 L192.769,64.651 L190.82,64.651 L190.82,51.83 L188.873,51.83 L188.873,64.651 L184.884,64.651 L184.884,69.636 L179.716,69.636 L179.716,81.61 L164.408,81.61 L164.408,53.799 L157.867,53.799 L157.867,73.497 L157.814,73.497 L157.814,48.249 L151.444,48.249 L151.444,43.407 L151.51,43.407 C151.782,43.407 152.003,43.212 152.003,42.972 C152.003,42.732 151.782,42.537 151.51,42.537 L151.444,42.537 L140.045,33.357 L140.045,28.27 L137.865,28.27 L137.264,16.805 C137.259,16.805 137.255,16.806 137.251,16.806 C137.209,16.806 137.169,16.801 137.128,16.8 L136.525,28.27 L134.346,28.27 L134.346,33.357 L134.457,33.357 L123.058,42.537 L122.992,42.537 C122.72,42.537 122.499,42.732 122.499,42.972 C122.499,43.212 122.72,43.407 122.992,43.407 L123.058,43.407 L123.058,48.249 L115.905,48.249 L115.905,53.799 L109.364,53.799 L109.364,92.723 L82.735,92.723 L82.735,90.371 L82.735,89.131 L82.735,88.67 L82.735,88.493 L82.735,86.108 L82.735,84.866 L82.735,84.406 L82.735,84.229 L82.735,81.843 L82.735,80.603 L82.735,80.142 L82.735,79.964 L82.735,77.579 L82.735,76.338 L82.735,75.878 L82.735,75.7 L82.735,73.315 L82.735,72.074 L82.735,71.613 L82.735,71.437 L82.735,69.051 L82.735,67.81 L82.735,67.35 L82.735,67.172 L82.735,63.663 L76.952,63.663 L76.952,60.449 L59.617,60.449 L59.617,58.039 L58.656,58.039 L58.135,58.039 L58.135,47.805 L0,47.805 L0,105.316 L0,111.209 L0,111.605 L0,114.833 L0,114.9 L0,132.136 L0,141.806 L0,145.1 L0,147.52 L0,148.79 L0,171.508 L0,171.628 L0,209.877 L1440.421,209.877 L1440.421,191.572 L1440.421,191.451 L1440.421,168.734 L1440.421,167.463 L1440.421,165.043 L1440.421,161.748 L1440.421,152.079 L1440.421,134.843 L1440.421,134.777 L1440.421,131.547 L1440.421,131.153 L1440.421,125.258 L1440.421,67.748 L1408.331,67.748 L1408.331,77.983 Z" id="Fill-1" fill="#231F20" mask="url(#mask-2)"></path>
                </g>
            </g>
        </g>
    </g>
</svg>