<svg width="124px" height="124px" viewBox="0 0 124 124" version="1.1" xmlns="http://www.w3.org/2000/svg" xmlns:xlink="http://www.w3.org/1999/xlink">
    <defs>
        <path d="M43.2857143,62.4 C43.2857143,62.655 43.2857143,62.91 43.2857143,63.165 C37.3714286,65.205 33,70.815 33,77.7 C33,86.115 39.9428571,93 48.4285714,93 L87,93 L87,92.745 C97.0285714,91.47 105,82.8 105,72.6 C105,61.38 95.7428571,52.2 84.4285714,52.2 C83.4,52.2 82.6285714,52.2 81.8571429,52.455 C78.2571429,46.08 71.5714286,42 63.8571429,42 C52.5428571,42 43.2857143,51.18 43.2857143,62.4 Z" id="path-1"></path>
    </defs>
    <g id="Page-1" stroke="none" stroke-width="1" fill="none" fill-rule="evenodd">
        <g id="Getting-started" transform="translate(-326.000000, -235.000000)">
            <g id="Group-5" transform="translate(326.000000, 235.000000)">
                <circle id="Oval" fill="#FFFFFF" cx="62" cy="62" r="62"></circle>
                <mask id="mask-2" fill="white">
                    <use xlink:href="#path-1"></use>
                </mask>
                <path stroke="#0083CA" stroke-width="6" d="M84.804345,90 L86.6216354,89.7689556 C95.2546687,88.6713798 102,81.1875126 102,72.6 C102,63.0425 94.0915966,55.2 84.4285714,55.2 C83.3408968,55.2 83.0427502,55.2227432 82.7987021,55.3034147 L80.4574091,56.0773421 L79.2448822,53.930159 C76.1141442,48.3861439 70.3632408,45 63.8571429,45 C54.1941176,45 46.2857143,52.8425 46.2857143,62.4 C46.2857143,62.7825 46.2857143,62.7825 46.2857143,63.165 L46.2857143,65.3036658 L44.2639397,66.0010316 C39.3552847,67.6941619 36,72.3057161 36,77.7 C36,84.4525 41.5941176,90 48.4285714,90 L84.804345,90 Z"></path>
            </g>
        </g>
    </g>
</svg>