<?xml version="1.0" encoding="UTF-8"?>
<svg xmlns="http://www.w3.org/2000/svg" xmlns:xlink="http://www.w3.org/1999/xlink" width="124px" height="124px" viewBox="0 0 124 124" version="1.1">
<defs>
<linearGradient id="linear0" gradientUnits="userSpaceOnUse" x1="922.7667" y1="300.8633" x2="922.7667" y2="308.1312" gradientTransform="matrix(75.2969,0,0,-6.7148,-69411.1406,2125.3323)">
<stop offset="0.3033" style="stop-color:rgb(27.843137%,21.568627%,53.333333%);stop-opacity:1;"/>
<stop offset="0.872" style="stop-color:rgb(17.254902%,13.333333%,33.333333%);stop-opacity:1;"/>
</linearGradient>
<linearGradient id="linear1" gradientUnits="userSpaceOnUse" x1="922.7667" y1="302.7918" x2="922.7667" y2="310.0597" gradientTransform="matrix(75.2969,0,0,-6.7148,-69411.1406,2138.2815)">
<stop offset="0.3033" style="stop-color:rgb(27.843137%,21.568627%,53.333333%);stop-opacity:1;"/>
<stop offset="0.872" style="stop-color:rgb(17.254902%,13.333333%,33.333333%);stop-opacity:1;"/>
</linearGradient>
<linearGradient id="linear2" gradientUnits="userSpaceOnUse" x1="923.091" y1="342.4032" x2="923.091" y2="344.6256" gradientTransform="matrix(68.4961,0,0,-21.9609,-63157.8203,7624.5781)">
<stop offset="0.3033" style="stop-color:rgb(27.843137%,21.568627%,53.333333%);stop-opacity:1;"/>
<stop offset="0.8631" style="stop-color:rgb(17.254902%,13.333333%,33.333333%);stop-opacity:1;"/>
</linearGradient>
</defs>
<g id="surface1">
<path style=" stroke:none;fill-rule:nonzero;fill:rgb(100%,100%,100%);fill-opacity:1;" d="M 124 62 C 124 96.242188 96.242188 124 62 124 C 27.757812 124 0 96.242188 0 62 C 0 27.757812 27.757812 0 62 0 C 96.242188 0 124 27.757812 124 62 Z M 124 62 "/>
<path style=" stroke:none;fill-rule:nonzero;fill:rgb(17.254902%,13.333333%,33.333333%);fill-opacity:1;" d="M 50.398438 77.601562 L 39.398438 77.601562 C 40.898438 82.601562 43.601562 87.199219 47.5 91.199219 C 53.800781 97.601562 61.398438 100.699219 70.300781 100.699219 C 72.101562 100.699219 73.800781 100.601562 75.5 100.300781 C 82.199219 99.300781 88.101562 96.199219 93.101562 91.101562 C 97.101562 87.101562 99.800781 82.601562 101.300781 77.5 L 50.398438 77.5 Z M 44.300781 62.5 L 38.5 62.5 C 38.300781 63.800781 38.101562 65.101562 38.101562 66.398438 L 102.5 66.398438 C 102.398438 65.101562 102.300781 63.800781 102.101562 62.5 M 38.101562 70 C 38.199219 71.300781 38.300781 72.601562 38.5 73.898438 L 102 73.898438 C 102.199219 72.601562 102.398438 71.300781 102.398438 70 M 101.300781 58.898438 C 99.800781 53.800781 97.101562 49.300781 93.101562 45.300781 C 88.101562 40.300781 82.199219 37.199219 75.601562 36.199219 C 73.898438 35.898438 72.101562 35.800781 70.398438 35.800781 C 61.5 35.800781 53.898438 39 47.601562 45.300781 C 43.601562 49.300781 40.898438 53.898438 39.5 58.898438 "/>
<path style=" stroke:none;fill-rule:nonzero;fill:rgb(96.862745%,58.039216%,11.764706%);fill-opacity:1;" d="M 36.199219 68.199219 C 36.199219 51.101562 49 36.898438 65.601562 34.398438 C 65.199219 34.398438 64.800781 34.398438 64.398438 34.398438 C 45.800781 34.398438 30.601562 49.601562 30.601562 68.300781 C 30.601562 87 45.699219 102.199219 64.398438 102.199219 C 64.800781 102.199219 65.199219 102.199219 65.601562 102.199219 C 49 99.601562 36.199219 85.398438 36.199219 68.199219 Z M 36.199219 68.199219 "/>
<path style=" stroke:none;fill-rule:nonzero;fill:url(#linear0);" d="M 92.199219 66.398438 C 92.101562 65.101562 91.898438 63.800781 91.5 62.5 L 49 62.5 C 48.699219 63.800781 48.398438 65.101562 48.300781 66.398438 Z M 92.199219 66.398438 "/>
<path style=" stroke:none;fill-rule:nonzero;fill:url(#linear1);" d="M 92.199219 70 L 48.398438 70 C 48.5 71.300781 48.699219 72.601562 49.101562 73.898438 L 91.601562 73.898438 C 91.898438 72.699219 92.101562 71.398438 92.199219 70 Z M 92.199219 70 "/>
<path style=" stroke:none;fill-rule:nonzero;fill:url(#linear2);" d="M 70.300781 90.398438 C 79.101562 90.398438 86.699219 85.199219 90.199219 77.601562 L 50.300781 77.601562 C 53.898438 85.101562 61.5 90.398438 70.300781 90.398438 Z M 70.300781 90.398438 "/>
<path style=" stroke:none;fill-rule:nonzero;fill:rgb(100%,100%,100%);fill-opacity:1;" d="M 45.199219 70 L 102.5 70 C 102.5 69.398438 102.5 68.800781 102.5 68.300781 C 102.5 67.699219 102.5 67 102.398438 66.398438 L 38.101562 66.398438 C 38.101562 67 38 67.699219 38 68.300781 C 38 68.898438 38 69.5 38 70 Z M 50.199219 58.898438 L 39.300781 58.898438 C 38.898438 60.101562 38.699219 61.300781 38.5 62.5 L 101.800781 62.5 C 101.601562 61.300781 101.300781 60.101562 100.898438 58.898438 M 97.699219 74 L 38.5 74 C 38.699219 75.199219 39 76.398438 39.300781 77.601562 L 101.199219 77.601562 C 101.601562 76.398438 101.800781 75.199219 102.101562 74 Z M 97.699219 74 "/>
</g>
</svg>
