
<svg width="76px" height="62px" viewBox="0 0 76 62" version="1.1" xmlns="http://www.w3.org/2000/svg" xmlns:xlink="http://www.w3.org/1999/xlink">
    <g id="Page-1" stroke="none" stroke-width="1" fill="none" fill-rule="evenodd">
        <g id="Desktop-HD-Copy" transform="translate(-424.000000, -2490.000000)" fill="#FEFEFE">
            <g id="social" transform="translate(-1.000000, 2384.000000)">
                <path d="M448.902078,168 C477.581335,168 493.266042,144.148799 493.266042,123.466975 C493.266042,122.789447 493.251805,122.114517 493.220743,121.444135 C496.264884,119.23486 498.911683,116.478626 501,113.33978 C498.206301,114.585705 495.199046,115.424982 492.045538,115.803696 C495.264407,113.866602 497.736478,110.800511 498.901975,107.145887 C495.888249,108.93877 492.552895,110.243158 489.001396,110.944722 C486.155279,107.902665 482.104189,106 477.619516,106 C469.008038,106 462.024762,113.009786 462.024762,121.650057 C462.024762,122.879091 462.161955,124.073048 462.429223,125.219584 C449.470913,124.565442 437.979666,118.337119 430.290361,108.866665 C428.950136,111.178576 428.178747,113.866602 428.178747,116.733268 C428.178747,122.163237 430.931029,126.956603 435.116723,129.761557 C432.559877,129.682306 430.156403,128.976845 428.055143,127.803026 C428.05126,127.868635 428.05126,127.934244 428.05126,128.003101 C428.05126,135.583882 433.427044,141.912242 440.561104,143.347198 C439.251294,143.705126 437.873535,143.897406 436.451124,143.897406 C435.446117,143.897406 434.468937,143.798018 433.518937,143.615481 C435.50436,149.83341 441.260014,154.359143 448.085388,154.486463 C442.747786,158.68415 436.025954,161.186392 428.719755,161.186392 C427.461717,161.186392 426.221151,161.113637 425,160.969427 C431.90109,165.408763 440.095163,168 448.902078,168" id="twitter-logo"></path>
            </g>
        </g>
    </g>
</svg>