
<svg width="164px" height="37px" viewBox="0 0 164 37" version="1.1" xmlns="http://www.w3.org/2000/svg" xmlns:xlink="http://www.w3.org/1999/xlink">
    <g id="Page-1" stroke="none" stroke-width="1" fill="none" fill-rule="evenodd">
        <g id="Desktop-HD-Copy" transform="translate(-944.000000, -2504.000000)" fill-rule="nonzero">
            <g id="social" transform="translate(-1.000000, 2384.000000)">
                <g id="yt_logo_pms_dark" transform="translate(945.000000, 120.000000)">
                    <g id="Group">
                        <path d="M50.8406557,6.01465116 C50.2439344,3.76453488 48.4921311,1.99627907 46.2629508,1.39395349 C42.2265574,0.301162791 26.0340984,0.301162791 26.0340984,0.301162791 C26.0340984,0.301162791 9.84163934,0.301162791 5.8052459,1.39395349 C3.57606557,1.99627907 1.8242623,3.76453488 1.22754098,6.01465116 C0.144918033,10.0889535 0.144918033,18.5946512 0.144918033,18.5946512 C0.144918033,18.5946512 0.144918033,27.1003488 1.22754098,31.1746512 C1.8242623,33.4247674 3.57606557,35.1930233 5.8052459,35.7953488 C9.84163934,36.8881395 26.0340984,36.8881395 26.0340984,36.8881395 C26.0340984,36.8881395 42.2265574,36.8881395 46.2629508,35.7953488 C48.4921311,35.1930233 50.2439344,33.4247674 50.8406557,31.1746512 C51.9232787,27.1003488 51.9232787,18.5946512 51.9232787,18.5946512 C51.9232787,18.5946512 51.9232787,10.0889535 50.8406557,6.01465116 Z" id="Path" fill="#F0F0F1"></path>
                        <polygon id="Path" fill="#0083CA" points="20.8554098 26.4334884 34.3072131 18.5946512 20.8554098 10.7515116"></polygon>
                    </g>
                    <g id="Group" transform="translate(58.000000, 2.000000)" fill="#FFFFFF">
                        <path d="M18.5904418,31.74 C17.568755,31.0457143 16.8408032,29.9657143 16.4065863,28.5 C15.9766265,27.0342857 15.7595181,25.0885714 15.7595181,22.6542857 L15.7595181,19.3414286 C15.7595181,16.8857143 16.0064257,14.91 16.500241,13.4228571 C16.9940562,11.9357143 17.7645783,10.8471429 18.8118072,10.1657143 C19.8590361,9.48428571 21.2340562,9.14142857 22.9368675,9.14142857 C24.6141365,9.14142857 25.9551004,9.48857143 26.9682731,10.1828571 C27.9771888,10.8771429 28.7179116,11.9657143 29.1861847,13.44 C29.6544578,14.9185714 29.8885944,16.8857143 29.8885944,19.3414286 L29.8885944,22.6542857 C29.8885944,25.0885714 29.6587149,27.0428571 29.2032129,28.5171429 C28.7477108,29.9957143 28.006988,31.0757143 26.9853012,31.7571429 C25.9636145,32.4385714 24.5758233,32.7814286 22.8261847,32.7814286 C21.0254618,32.7814286 19.6121285,32.4342857 18.5904418,31.74 Z M24.3246586,28.1657143 C24.6056225,27.42 24.7503614,26.2071429 24.7503614,24.5185714 L24.7503614,17.4042857 C24.7503614,15.7671429 24.6098795,14.5671429 24.3246586,13.8128571 C24.0394378,13.0542857 23.5413655,12.6771429 22.8261847,12.6771429 C22.1365462,12.6771429 21.646988,13.0542857 21.3660241,13.8128571 C21.0808032,14.5714286 20.9403213,15.7671429 20.9403213,17.4042857 L20.9403213,24.5142857 C20.9403213,26.2028571 21.0765462,27.42 21.348996,28.1614286 C21.6214458,28.9071429 22.111004,29.28 22.8261847,29.28 C23.5413655,29.2842857 24.0394378,28.9114286 24.3246586,28.1657143 Z" id="Shape"></path>
                        <path d="M97.1411245,22.71 L97.1411245,23.8628571 C97.1411245,25.3285714 97.1836948,26.4257143 97.2688353,27.1585714 C97.3539759,27.8914286 97.5327711,28.4228571 97.8052209,28.7614286 C98.0776707,29.0957143 98.4948594,29.2628571 99.0610442,29.2628571 C99.8230522,29.2628571 100.350924,28.9628571 100.631888,28.3671429 C100.917108,27.7714286 101.070361,26.7771429 101.095904,25.3885714 L105.497671,25.65 C105.523213,25.8471429 105.535984,26.1214286 105.535984,26.4685714 C105.535984,28.5771429 104.961285,30.1542857 103.816145,31.1957143 C102.671004,32.2371429 101.049076,32.76 98.9546185,32.76 C96.4387149,32.76 94.6763052,31.9671429 93.6673896,30.3771429 C92.6542169,28.7871429 92.1518876,26.3314286 92.1518876,23.0057143 L92.1518876,19.02 C92.1518876,15.5957143 92.675502,13.0928571 93.7227309,11.5157143 C94.7699598,9.93857143 96.5621687,9.15 99.1036145,9.15 C100.853253,9.15 102.198474,9.47142857 103.13502,10.1185714 C104.071566,10.7657143 104.731406,11.7685714 105.114538,13.1357143 C105.497671,14.5028571 105.689237,16.3885714 105.689237,18.7971429 L105.689237,22.7057143 L97.1411245,22.7057143 L97.1411245,22.71 Z M97.7881928,13.1057143 C97.5285141,13.4271429 97.3582329,13.9542857 97.2688353,14.6871429 C97.1836948,15.42 97.1411245,16.53 97.1411245,18.0214286 L97.1411245,19.6585714 L100.874538,19.6585714 L100.874538,18.0214286 C100.874538,16.5557143 100.823454,15.4457143 100.725542,14.6871429 C100.627631,13.9285714 100.448835,13.3971429 100.189157,13.0842857 C99.9294779,12.7757143 99.5293173,12.6171429 98.9886747,12.6171429 C98.4480321,12.6214286 98.0478715,12.78 97.7881928,13.1057143 Z" id="Shape"></path>
                        <path d="M6.16417671,22.2814286 L0.357590361,1.17 L5.42345382,1.17 L7.45831325,10.74 C7.97767068,13.0971429 8.35654618,15.1071429 8.60345382,16.77 L8.7524498,16.77 C8.92273092,15.5785714 9.30586345,13.5814286 9.89759036,10.7742857 L12.0048193,1.17 L17.0706827,1.17 L11.1917269,22.2814286 L11.1917269,32.4085714 L6.15991968,32.4085714 L6.15991968,22.2814286 L6.16417671,22.2814286 Z" id="Path"></path>
                        <path d="M46.3675502,9.58714286 L46.3675502,32.4128571 L42.3744578,32.4128571 L41.9317269,29.6185714 L41.8210442,29.6185714 C40.735502,31.7271429 39.1093173,32.7814286 36.9382329,32.7814286 C35.435502,32.7814286 34.3244177,32.2842857 33.6092369,31.2942857 C32.8940562,30.3 32.5364659,28.7485714 32.5364659,26.64 L32.5364659,9.58714286 L37.6406426,9.58714286 L37.6406426,26.34 C37.6406426,27.36 37.7513253,28.0842857 37.9726908,28.5171429 C38.1940562,28.95 38.5644177,29.1685714 39.0837751,29.1685714 C39.526506,29.1685714 39.9522088,29.0314286 40.3608835,28.7571429 C40.7695582,28.4828571 41.0675502,28.1357143 41.2676305,27.7157143 L41.2676305,9.58714286 L46.3675502,9.58714286 Z" id="Path"></path>
                        <path d="M72.5482731,9.58714286 L72.5482731,32.4128571 L68.5551807,32.4128571 L68.1124498,29.6185714 L68.0017671,29.6185714 C66.9162249,31.7271429 65.2900402,32.7814286 63.1189558,32.7814286 C61.6162249,32.7814286 60.5051406,32.2842857 59.7899598,31.2942857 C59.0747791,30.3 58.7171888,28.7485714 58.7171888,26.64 L58.7171888,9.58714286 L63.8213655,9.58714286 L63.8213655,26.34 C63.8213655,27.36 63.9320482,28.0842857 64.1534137,28.5171429 C64.3747791,28.95 64.7451406,29.1685714 65.264498,29.1685714 C65.7072289,29.1685714 66.1329317,29.0314286 66.5416064,28.7571429 C66.9502811,28.4828571 67.2482731,28.1357143 67.4483534,27.7157143 L67.4483534,9.58714286 L72.5482731,9.58714286 Z" id="Path"></path>
                        <polygon id="Path" points="60.2369478 5.30571429 55.1710843 5.30571429 55.1710843 32.4128571 50.1775904 32.4128571 50.1775904 5.30571429 45.1117269 5.30571429 45.1117269 1.17428571 60.2369478 1.17428571"></polygon>
                        <path d="M89.4401606,13.2342857 C89.1293976,11.7942857 88.6313253,10.7528571 87.9416867,10.1057143 C87.2520482,9.45857143 86.3027309,9.13714286 85.0937349,9.13714286 C84.1571888,9.13714286 83.280241,9.40285714 82.4671486,9.93857143 C81.6540562,10.4742857 81.0240161,11.1728571 80.5812851,12.0428571 L80.5429719,12.0428571 L80.5429719,0.0171428571 L75.6261044,0.0171428571 L75.6261044,32.4085714 L79.8405622,32.4085714 L80.3599197,30.2485714 L80.4706024,30.2485714 C80.866506,31.02 81.4582329,31.6242857 82.2457831,32.0742857 C83.0333333,32.52 83.9102811,32.7428571 84.8723695,32.7428571 C86.5964659,32.7428571 87.8693173,31.9414286 88.6824096,30.3428571 C89.495502,28.74 89.9041767,26.2414286 89.9041767,22.8385714 L89.9041767,19.2257143 C89.8999197,16.6757143 89.7466667,14.6742857 89.4401606,13.2342857 Z M84.7616867,22.5471429 C84.7616867,24.21 84.6935743,25.5128571 84.5573494,26.4557143 C84.4211245,27.3985714 84.195502,28.0714286 83.8719679,28.4657143 C83.5526908,28.8642857 83.1184739,29.0614286 82.5778313,29.0614286 C82.1563855,29.0614286 81.768996,28.9628571 81.4114056,28.7614286 C81.0538153,28.5642857 80.7643373,28.2642857 80.5429719,27.87 L80.5429719,14.9142857 C80.713253,14.2928571 81.011245,13.7871429 81.4326908,13.3885714 C81.8498795,12.99 82.3096386,12.7928571 82.7991968,12.7928571 C83.3185542,12.7928571 83.7187149,12.9985714 83.9996787,13.4057143 C84.2848996,13.8171429 84.4807229,14.5028571 84.5914056,15.4714286 C84.7020884,16.44 84.7574297,17.8157143 84.7574297,19.6028571 L84.7574297,22.5471429 L84.7616867,22.5471429 Z" id="Shape"></path>
                    </g>
                </g>
            </g>
        </g>
    </g>
</svg>