
<svg width="48px" height="48px" viewBox="0 0 48 48" version="1.1" xmlns="http://www.w3.org/2000/svg" xmlns:xlink="http://www.w3.org/1999/xlink">
    <g id="Page-1" stroke="none" stroke-width="1" fill="none" fill-rule="evenodd">
        <g id="Desktop-HD" transform="translate(-530.000000, -2016.000000)" fill="#ffffff">
            <g id="key-features" transform="translate(78.000000, 1560.000000)">
                <path d="M471.312496,474.313466 C469.900042,474.313466 468.75008,475.461866 468.75008,476.875883 C468.75008,478.288337 469.900042,479.436737 471.312496,479.436737 L480.687191,479.436737 C482.099645,479.436737 483.249608,478.288337 483.249608,476.875883 C483.249608,475.461866 482.099645,474.313466 480.687191,474.313466 L471.312496,474.313466 Z M455.68738,468.499593 L496.311058,468.499593 L498.873474,468.499593 L498.873474,457.126526 L453.126526,457.126526 L453.126526,468.499593 L455.68738,468.499593 Z M496.875102,469.626119 L496.875102,503.437518 C496.875102,503.748446 496.623547,504 496.311058,504 L455.68738,504 C455.376453,504 455.124898,503.748446 455.124898,503.437518 L455.124898,469.626119 L452.562482,469.626119 C452.251554,469.626119 452,469.374565 452,469.063637 L452,456.564044 C452,456.251554 452.251554,456 452.562482,456 L499.435956,456 C499.748446,456 500,456.251554 500,456.564044 L500,469.063637 C500,469.374565 499.748446,469.626119 499.435956,469.626119 L496.875102,469.626119 Z M495.748576,469.626119 L456.251424,469.626119 L456.251424,502.873474 L495.748576,502.873474 L495.748576,469.626119 Z M480.687191,480.563263 L471.312496,480.563263 C469.278188,480.563263 467.625116,478.908629 467.625116,476.875883 C467.625116,474.841574 469.278188,473.186941 471.312496,473.186941 L480.687191,473.186941 C482.7215,473.186941 484.374571,474.841574 484.374571,476.875883 C484.374571,478.908629 482.7215,480.563263 480.687191,480.563263 Z" id="Fill-4"></path>
            </g>
        </g>
    </g>
</svg>