<?xml version="1.0" encoding="utf-8"?>
<!-- Generator: Adobe Illustrator 23.0.3, SVG Export Plug-In . SVG Version: 6.00 Build 0)  -->
<svg version="1.1" id="Layer_1" xmlns="http://www.w3.org/2000/svg" xmlns:xlink="http://www.w3.org/1999/xlink" x="0px" y="0px"
	 viewBox="0 0 595.28 373.35" style="enable-background:new 0 0 595.28 373.35;" xml:space="preserve">
<style type="text/css">
	.st0{opacity:0.15;}
	.st1{fill:url(#SVGID_1_);}
	.st2{fill:url(#SVGID_2_);}
	.st3{fill:url(#SVGID_3_);}
	.st4{fill:url(#SVGID_4_);}
	.st5{fill:url(#SVGID_5_);}
	.st6{fill:url(#SVGID_6_);}
	.st7{fill:url(#SVGID_7_);}
	.st8{fill:url(#SVGID_8_);}
	.st9{fill:url(#SVGID_9_);}
	.st10{fill:url(#SVGID_10_);}
</style>
<g class="st0">
	<g>
		<linearGradient id="SVGID_1_" gradientUnits="userSpaceOnUse" x1="146.7535" y1="149.0972" x2="146.7535" y2="363.1902">
			<stop  offset="0" style="stop-color:#FFFFFF"/>
			<stop  offset="1" style="stop-color:#335AA9;stop-opacity:0"/>
		</linearGradient>
		<polygon class="st1" points="149.53,191.61 147.27,191.61 146.52,191.61 144.26,191.61 137.35,360.96 146.38,360.96 
			147.13,360.96 156.15,360.96 		"/>
		<g>
			<linearGradient id="SVGID_2_" gradientUnits="userSpaceOnUse" x1="75.1124" y1="21.157" x2="75.1124" y2="879.6052">
				<stop  offset="0" style="stop-color:#FFFFFF"/>
				<stop  offset="1" style="stop-color:#335AA9;stop-opacity:0"/>
			</linearGradient>
			<path class="st2" d="M142,190.37L7.48,200.1c0,0-0.57,5.35,4.66,5.31c9.49-0.07,116.61,0.61,116.61,0.61l6.73-10.01l7.28-1.27
				L142,190.37z"/>
			<linearGradient id="SVGID_3_" gradientUnits="userSpaceOnUse" x1="191.5559" y1="21.157" x2="191.5559" y2="879.6052">
				<stop  offset="0" style="stop-color:#FFFFFF"/>
				<stop  offset="1" style="stop-color:#335AA9;stop-opacity:0"/>
			</linearGradient>
			<path class="st3" d="M151.69,201.05l76.71,110.93c0,0,4.89-2.23,2.21-6.71c-4.88-8.14-58.72-100.76-58.72-100.76l-12.04-0.71
				l-4.79-5.63L151.69,201.05z"/>
			<linearGradient id="SVGID_4_" gradientUnits="userSpaceOnUse" x1="181.817" y1="21.157" x2="181.817" y2="879.6052">
				<stop  offset="0" style="stop-color:#FFFFFF"/>
				<stop  offset="1" style="stop-color:#335AA9;stop-opacity:0"/>
			</linearGradient>
			<path class="st4" d="M155.7,187.94l59.11-121.22c0,0-4.34-3.18-6.93,1.36c-4.7,8.24-59.07,100.55-59.07,100.55l5.28,10.84
				l-2.55,6.93L155.7,187.94z"/>
			<linearGradient id="SVGID_5_" gradientUnits="userSpaceOnUse" x1="149.1435" y1="21.157" x2="149.1435" y2="879.6052">
				<stop  offset="0" style="stop-color:#FFFFFF"/>
				<stop  offset="1" style="stop-color:#335AA9;stop-opacity:0"/>
			</linearGradient>
			<path class="st5" d="M138.78,192.83c-0.04-5.72,4.56-10.4,10.29-10.44c5.72-0.04,10.4,4.57,10.44,10.29
				c0.04,5.72-4.57,10.4-10.29,10.44C143.49,203.16,138.82,198.55,138.78,192.83z"/>
		</g>
	</g>
</g>
<g class="st0">
	<g>
		<linearGradient id="SVGID_6_" gradientUnits="userSpaceOnUse" x1="380.0048" y1="199.033" x2="380.0048" y2="362.6649">
			<stop  offset="0" style="stop-color:#FFFFFF"/>
			<stop  offset="1" style="stop-color:#335AA9;stop-opacity:0"/>
		</linearGradient>
		<polygon class="st6" points="387.21,240.92 383.72,240.92 382.55,240.92 379.07,240.92 365.47,360.96 379.42,360.96 
			380.58,360.96 394.54,360.96 		"/>
		<g>
			<linearGradient id="SVGID_7_" gradientUnits="userSpaceOnUse" x1="368.5088" y1="21.157" x2="368.5088" y2="879.6052">
				<stop  offset="0" style="stop-color:#FFFFFF"/>
				<stop  offset="1" style="stop-color:#335AA9;stop-opacity:0"/>
			</linearGradient>
			<path class="st7" d="M387.42,216.68L357.3,10.24c0,0-8.32-0.28-7.67,7.78C350.8,32.64,361.8,198,361.8,198l16.2,9.26l2.78,11.09
				L387.42,216.68z"/>
			<linearGradient id="SVGID_8_" gradientUnits="userSpaceOnUse" x1="293.186" y1="21.157" x2="293.186" y2="879.6052">
				<stop  offset="0" style="stop-color:#FFFFFF"/>
				<stop  offset="1" style="stop-color:#335AA9;stop-opacity:0"/>
			</linearGradient>
			<path class="st8" d="M372.04,232.83L209.52,363.65c0,0,3.99,7.3,10.6,2.65c12-8.44,148.85-101.91,148.85-101.91l-0.25-18.66
				l8.14-8.02L372.04,232.83z"/>
			<linearGradient id="SVGID_9_" gradientUnits="userSpaceOnUse" x1="490.2198" y1="21.157" x2="490.2198" y2="879.6052">
				<stop  offset="0" style="stop-color:#FFFFFF"/>
				<stop  offset="1" style="stop-color:#335AA9;stop-opacity:0"/>
			</linearGradient>
			<path class="st9" d="M392.73,237.54l193.67,77.58c0,0,4.41-7.05-2.88-10.54c-13.24-6.33-161.77-79.82-161.77-79.82l-16.14,9.36
				l-10.98-3.17L392.73,237.54z"/>
			<linearGradient id="SVGID_10_" gradientUnits="userSpaceOnUse" x1="384.5561" y1="21.157" x2="384.5561" y2="879.6052">
				<stop  offset="0" style="stop-color:#FFFFFF"/>
				<stop  offset="1" style="stop-color:#335AA9;stop-opacity:0"/>
			</linearGradient>
			<path class="st10" d="M383.28,211.98c8.83-0.7,16.56,5.88,17.26,14.7c0.71,8.83-5.87,16.56-14.7,17.26
				c-8.83,0.71-16.56-5.88-17.27-14.71C367.87,220.42,374.45,212.69,383.28,211.98z"/>
		</g>
	</g>
</g>
</svg>
