
<svg width="70px" height="31px" viewBox="0 0 70 31" version="1.1" xmlns="http://www.w3.org/2000/svg" xmlns:xlink="http://www.w3.org/1999/xlink">
    <defs>
        <polygon id="path-1" points="0 0.308291121 22.4688695 0.308291121 22.4688695 16.9997682 0 16.9997682"></polygon>
        <polygon id="path-3" points="0 0.308628539 22.4689462 0.308628539 22.4689462 16.9997682 0 16.9997682"></polygon>
    </defs>
    <g id="Page-1" stroke="none" stroke-width="1" fill="none" fill-rule="evenodd">
        <g id="Desktop-HD" transform="translate(-846.000000, -1940.000000)">
            <g id="key-features" transform="translate(78.000000, 1560.000000)">
                <g id="Group-13" transform="translate(768.000000, 380.000000)">
                    <g id="Group-3">
                        <mask id="mask-2" fill="white">
                            <use xlink:href="#path-1"></use>
                        </mask>
                        <g id="Clip-2"></g>
                        <path d="M1.38168667,16.9997682 C0.946986667,16.9997682 0.51842,16.7919045 0.24932,16.4063136 C-0.18768,15.7765409 -0.03588,14.9095409 0.588186667,14.4690864 L20.29612,0.559995455 C20.9224867,0.118768182 21.78192,0.273313636 22.2196867,0.900768182 C22.65592,1.53054091 22.5048867,2.39831364 21.8800533,2.83954091 L2.17212,16.7470864 C1.93138667,16.9178591 1.65462,16.9997682 1.38168667,16.9997682" id="Fill-1" fill="#ffffff" mask="url(#mask-2)"></path>
                    </g>
                    <g id="Group-6" transform="translate(0.000000, 14.000000)">
                        <mask id="mask-4" fill="white">
                            <use xlink:href="#path-3"></use>
                        </mask>
                        <g id="Clip-5"></g>
                        <path d="M21.08663,16.9997682 C20.8144633,16.9997682 20.5376967,16.9194045 20.2961967,16.7494045 L0.588263333,2.83799545 C-0.0358033333,2.39831364 -0.187603333,1.53054091 0.249396667,0.900768182 C0.68793,0.273313636 1.54659667,0.119540909 2.17219667,0.559995455 L21.88013,14.4698591 C22.5049633,14.9103136 22.6559967,15.7773136 22.2197633,16.4063136 C21.9498967,16.79345 21.5220967,16.9997682 21.08663,16.9997682" id="Fill-4" fill="#ffffff" mask="url(#mask-4)"></path>
                    </g>
                    <path d="M68.585547,17 C68.3053711,17 68.0228408,16.9165801 67.7771964,16.7426575 L47.6029632,2.57858671 C46.9625612,2.12922098 46.8087391,1.24544215 47.255294,0.604053233 C47.7034184,-0.0373356803 48.5855408,-0.192370792 49.2228036,0.256994938 L69.3970368,14.4226396 C70.0374388,14.8704314 70.1912609,15.7542102 69.744706,16.3955992 C69.4700238,16.7883023 69.0305322,17 68.585547,17" id="Fill-7" fill="#ffffff"></path>
                    <path d="M48.4147535,31 C47.9689967,31 47.530303,30.7898763 47.255629,30.3955992 C46.8083027,29.7549972 46.9629049,28.8727924 47.6032879,28.4234266 L67.77692,14.2569949 C68.4125942,13.8076292 69.2970447,13.9626643 69.744371,14.6040532 C70.1916973,15.2454421 70.0370951,16.129221 69.3967121,16.5770127 L49.22308,30.7450184 C48.9782277,30.9173671 48.694921,31 48.4147535,31" id="Fill-9" fill="#ffffff"></path>
                    <path d="M28.412593,31 C28.2116885,31 28.0084296,30.9577283 27.8153729,30.8677053 C27.109068,30.5389255 26.8030025,29.7005372 27.1326115,28.9952263 L40.3067682,0.813321632 C40.6387316,0.108793585 41.4776649,-0.196501902 42.1847546,0.132277853 C42.8902748,0.461057608 43.197125,1.30022879 42.8675161,2.00475684 L29.6941441,30.1866615 C29.4540004,30.6986186 28.944676,31 28.412593,31" id="Fill-11" fill="#ffffff"></path>
                </g>
            </g>
        </g>
    </g>
</svg>