
<svg width="48px" height="48px" viewBox="0 0 48 48" version="1.1" xmlns="http://www.w3.org/2000/svg" xmlns:xlink="http://www.w3.org/1999/xlink">
    <g id="Page-1" stroke="none" stroke-width="1" fill="none" fill-rule="evenodd">
        <g id="Desktop-HD" transform="translate(-185.000000, -1831.000000)" fill="#ffffff">
            <g id="key-features" transform="translate(78.000000, 1560.000000)">
                <path d="M151.967537,287.991875 C153.923864,289.937187 155,292.424687 155,294.998125 C155,297.571562 153.922309,300.060625 151.967537,302.004375 C149.930344,304.029375 147.082939,305.052812 144.299294,305.052812 C141.706927,305.052812 139.170544,304.166875 137.386833,302.37625 L123.711203,288.635625 C120.481241,285.390312 114.414761,285.545 110.98108,288.9575 C109.2829,290.646562 108.346725,292.798125 108.346725,295.018437 C108.346725,297.237187 109.2829,299.390312 110.98108,301.077812 C114.403875,304.480937 120.470356,304.62 123.708093,301.365312 L126.375105,298.685625 L121.66779,298.685625 L121.66779,297.562187 L128.448066,297.562187 L128.448066,304.373125 L127.326832,304.373125 L127.326832,299.645 L124.661375,302.321562 C122.845007,304.146562 120.263526,305.05125 117.638502,305.05125 C114.867297,305.05125 112.047884,304.041875 110.032463,302.040312 C108.077691,300.096562 107,297.602812 107,295.018437 C107,292.434062 108.076136,289.940312 110.032463,287.995 C113.965334,284.087187 120.939999,283.935625 124.664485,287.677812 L138.340115,301.418437 C141.542085,304.634062 147.585239,304.4575 151.020476,301.043437 C152.7171,299.354375 153.653275,297.2075 153.653275,294.998125 C153.653275,292.78875 152.7171,290.641875 151.020476,288.952812 C147.58835,285.541875 141.512538,285.393437 138.279466,288.643437 L134.586082,292.354375 C134.453897,292.485625 134.28128,292.55125 134.110218,292.55125 C133.937601,292.55125 133.764984,292.485625 133.6328,292.354375 C133.369986,292.090312 133.369986,291.660625 133.6328,291.396562 L137.326184,287.685625 C141.056891,283.93875 148.034666,284.080937 151.967537,287.991875 Z M107.673362,272.125 L107.673362,271 L154.326638,271 L154.326638,272.125 L107.673362,272.125 Z M107.673362,278.375 L107.673362,277.25 L130.998445,277.25 L130.998445,278.375 L107.673362,278.375 Z M107.673362,319 L107.673362,317.875 L154.326638,317.875 L154.326638,319 L107.673362,319 Z M130.998445,312.75 L130.998445,311.625 L154.325083,311.625 L154.325083,312.75 L130.998445,312.75 Z" id="Fill-6"></path>
            </g>
        </g>
    </g>
</svg>