<?xml version="1.0" encoding="UTF-8"?>
<svg width="39px" height="34px" viewBox="0 0 39 34" version="1.1" xmlns="http://www.w3.org/2000/svg" xmlns:xlink="http://www.w3.org/1999/xlink">
    <!-- Generator: Sketch 59.1 (86144) - https://sketch.com -->
    <title>Mobile</title>
    <desc>Created with Sketch.</desc>
    <g id="Mobile" stroke="none" stroke-width="1" fill="none" fill-rule="evenodd">
        <g id="todd-icon" transform="translate(3.000000, 2.000000)" fill="#000000" fill-rule="nonzero">
            <g id="Group" transform="translate(25.000000, 0.000000)">
                <g id="Shape">
                    <path d="M1.28333333,10.7606846 L3.5,8.4987798 L5.71666667,10.7606846 L5.71666667,1.57142857 L1.28333333,1.57142857 L1.28333333,10.7606846 Z M0.116666667,13.810744 L0.116666667,0.142857143 L6.88333333,0.142857143 L6.88333333,13.810744 L3.5,10.3583631 L0.116666667,13.810744 Z"></path>
                </g>
            </g>
            <g id="noun_user-profile_2799221" transform="translate(0.000000, 1.000000)">
                <path d="M12.9899051,0 C17.4739454,0 21.0926446,3.42051282 21.0926446,7.65897436 C21.0926446,10.4846154 19.3619624,13.0128205 16.9232738,14.3512821 C21.5646488,15.6897436 25.183348,19.4076923 25.9700218,24.1666667 C26.1273565,25.0589744 25.6553523,26.025641 24.7900112,26.4717949 C21.4859815,28.1820513 17.2379433,29 12.9899051,29 C8.74186688,29 4.57249606,28.1820513 1.26846635,26.4717949 C0.32445786,26.025641 -0.0688790096,25.1333333 0.00978836439,24.1666667 C0.875129478,19.4076923 4.49382868,15.6897436 9.13520375,14.3512821 C6.61784778,13.0128205 4.96583293,10.4846154 4.96583293,7.65897436 C4.96583293,3.42051282 8.58453213,0 12.9899051,0 Z M12.9899051,15.2435897 C7.40452152,15.1692308 2.52714433,19.1846154 1.58313584,24.3897436 C1.50446847,24.6871795 1.74047059,25.0589744 1.97647271,25.2076923 C5.0445003,26.6948718 9.05653637,27.5128205 12.9899051,27.5128205 C17.0019411,27.5128205 20.9353098,26.6948718 24.0033374,25.2076923 C24.3180069,24.9846154 24.4753417,24.6871795 24.3966743,24.3897436 C23.5313332,19.1846154 18.653956,15.1692308 12.9899051,15.2435897 Z M12.9899051,13.7564103 C16.6086043,13.7564103 19.5192971,11.0051282 19.5192971,7.65897436 C19.5192971,4.23846154 16.6086043,1.48717949 12.9899051,1.48717949 C9.44987324,1.48717949 6.53918041,4.23846154 6.53918041,7.65897436 C6.53918041,11.0051282 9.44987324,13.7564103 12.9899051,13.7564103 Z" id="Shape"></path>
            </g>
        </g>
    </g>
</svg>