<svg width="39px" height="39px" viewBox="0 0 39 39" version="1.1" xmlns="http://www.w3.org/2000/svg" xmlns:xlink="http://www.w3.org/1999/xlink">
    <defs>
        <polygon id="path-1" points="0 0 39 0 39 39 0 39"></polygon>
    </defs>
    <g id="Page-1" stroke="none" stroke-width="1" fill="none" fill-rule="evenodd">
        <g id="Desktop-HD-Copy" transform="translate(-1310.000000, -37.000000)">
            <g id="header">
                <g id="social-icons" transform="translate(1021.000000, 36.000000)">
                    <g id="github" transform="translate(289.000000, 1.000000)">
                        <mask id="mask-2" fill="white">
                            <use xlink:href="#path-1"></use>
                        </mask>
                        <g id="Clip-2"></g>
                        <path d="M19.4988029,0 C8.73130755,0 0,8.95131998 0,19.9953317 C0,28.8275953 5.58664825,36.3207817 13.336372,38.9657967 C14.3119705,39.1486771 14.6674954,38.5313023 14.6674954,38.001072 C14.6674954,37.5273013 14.6507366,36.2692315 14.6411602,34.6012151 C9.21731123,35.8089621 8.07292818,31.9206059 8.07292818,31.9206059 C7.1859116,29.610667 5.90745856,28.9969744 5.90745856,28.9969744 C4.13701657,27.756088 6.04152855,27.7806357 6.04152855,27.7806357 C7.99871087,27.9230124 9.0281768,29.8414154 9.0281768,29.8414154 C10.7674954,32.8963771 13.5913444,32.0138871 14.703407,31.5032949 C14.8805709,30.2108583 15.3833333,29.3295958 15.9411602,28.83005 C11.611418,28.3255947 7.05902394,26.6097103 7.05902394,18.9483721 C7.05902394,16.7660813 7.81915285,14.9814633 9.0664825,13.5834716 C8.86537753,13.0777889 8.19622468,11.0452391 9.256814,8.29221414 C9.256814,8.29221414 10.8943831,7.75461944 14.6196133,10.3419474 C16.1745856,9.89763393 17.8432781,9.67670461 19.5011971,9.66811291 C21.1567219,9.67670461 22.8254144,9.89763393 24.3827808,10.3419474 C28.1056169,7.75461944 29.7395948,8.29221414 29.7395948,8.29221414 C30.8037753,11.0452391 30.1346225,13.0777889 29.9335175,13.5834716 C31.1832413,14.9814633 31.938582,16.7660813 31.938582,18.9483721 C31.938582,26.6293484 27.3790055,28.3194578 23.0348987,28.814094 C23.735175,29.4314688 24.3588398,30.6514896 24.3588398,32.5171151 C24.3588398,35.1891326 24.3348987,37.3456483 24.3348987,38.001072 C24.3348987,38.5362119 24.6856354,39.1584962 25.6755985,38.9633419 C33.4169429,36.3134174 39,28.8251405 39,19.9953317 C39,8.95131998 30.2686924,0 19.4988029,0" id="Fill-1" fill="#0083C9" mask="url(#mask-2)"></path>
                    </g>
                </g>
            </g>
        </g>
    </g>
</svg>