
<svg width="60px" height="60px" viewBox="0 0 60 60" version="1.1" xmlns="http://www.w3.org/2000/svg" xmlns:xlink="http://www.w3.org/1999/xlink">
    <g id="Page-1" stroke="none" stroke-width="1" fill="none" fill-rule="evenodd">
        <g id="Desktop-HD" transform="translate(-693.000000, -1389.000000)" fill="#0083CA">
            <g id="value-props" transform="translate(-1.000000, 1105.000000)">
                <path d="M734.946067,329 C734.596432,332.210429 732.560628,334.970109 729.2418,336.67 C728.469046,337.068 728.41582,338.024 728.419763,339.438 L728.419763,344 L727.000419,344 L727.000419,339.444 C726.996476,338.08 726.988591,336.212 728.601123,335.386 C731.416706,333.942593 733.164495,331.651841 733.515246,329 L731.494642,329 C727.195321,328.871239 723,324.764753 723,320.713732 L723,291.829662 C723,289.640725 723.704453,287.970793 725.358642,286.241433 C728.317736,283.254177 734.11034,283.254177 737.063547,286.23351 C738.494038,287.677614 739.282868,289.597144 739.282868,291.641473 C739.282868,292.548743 739.127849,293.430261 738.829585,294.258293 C741.496302,293.277728 744.712453,293.95521 746.780679,296.041138 C748.924302,298.207074 749.574895,301.490986 748.450288,304.311927 C749.712293,304.678427 750.862951,305.360276 751.808178,306.316961 C753.142873,307.668027 753.906704,309.410192 753.991127,311.270872 C753.995147,311.292599 753.995147,311.312352 753.997157,311.332104 C753.999167,311.415065 754.001177,311.49605 753.999167,311.577035 C754.001177,311.671846 753.999167,311.766658 753.997157,311.86147 C753.995147,311.885173 753.993137,311.908875 753.991127,311.930603 C753.835744,315.080057 751.703172,317.82859 748.668399,318.811874 C748.852856,319.420953 748.961523,320.056072 748.990189,320.705809 C748.994113,320.725618 748.994113,320.745428 748.996075,320.767218 C748.998038,320.852398 749,320.935598 749,321.020778 C749,321.113882 748.998038,321.205005 748.996075,321.296129 C748.994113,321.3199 748.994113,321.339709 748.990189,321.3615 C748.901887,323.326591 748.08166,325.236216 746.696302,326.680321 C745.257962,328.175929 743.384,329 741.421736,329 L734.946067,329 Z M700.848045,304.05688 C701.684833,303.956581 702.538725,303.987855 703.371834,304.159237 C703.934657,304.277805 704.481399,304.455657 705,304.688841 L704.396975,305.981232 C703.976868,305.791523 703.53063,305.647266 703.074342,305.552411 C702.644184,305.463485 702.201966,305.418034 701.763768,305.418034 L701.761758,305.418034 C700.039118,305.418034 698.429043,306.085967 697.231034,307.301289 C696.123479,308.421757 695.500354,309.870263 695.450102,311.419552 L695.450102,311.755494 C695.533946,314.347409 697.26196,316.623515 699.740856,317.445925 C700.087777,316.695462 700.552593,315.999842 701.12614,315.383325 C702.556559,313.845958 704.474178,313 706.526265,313 L706.526265,314.464159 C704.856143,314.464159 703.297103,315.1515 702.131721,316.404169 C701.06183,317.557194 700.455753,319.047789 700.407033,320.640061 L700.407033,320.995933 C700.457702,322.691917 701.135884,324.349263 702.29542,325.597865 C703.458854,326.8485 704.961378,327.535841 706.526265,327.535841 L721,327.535841 L721,329 L714.447406,329 C714.698817,331.942505 716.091286,334.08872 718.596256,335.386 C720.064639,336.146 721.007762,337.798 721,339.594 L721,344 L719.594054,344 L719.594054,339.59 C719.599911,338.332 718.959447,337.188 717.961649,336.67 C714.947146,335.109706 713.293135,332.531543 713.035594,329 L706.526265,329 C704.577465,329 702.71831,328.154042 701.28984,326.618709 C699.912038,325.136248 699.099389,323.175902 699.009744,321.158617 C699.005846,321.136248 699.005846,321.115913 699.003898,321.09151 C699.001949,320.997966 699,320.904423 699,320.808846 C699,320.721403 699.001949,320.635994 699.003898,320.548551 C699.005846,320.526182 699.005846,320.505846 699.009744,320.485511 C699.034478,319.906016 699.119364,319.337849 699.261498,318.788698 C696.264029,317.785594 694.163056,315.053973 694.008873,311.927418 C694.006863,311.905681 694.004853,311.881967 694.002843,311.858253 C694.000833,311.763399 693.998823,311.668545 694.000833,311.57369 C693.998823,311.492669 694.000833,311.411647 694.002843,311.32865 C694.004853,311.308888 694.004853,311.289127 694.008873,311.267389 C694.093296,309.405872 694.857127,307.662922 696.191822,306.311247 C697.097232,305.393131 698.219489,304.732534 699.429686,304.35849 C698.461811,301.56279 699.154782,298.387789 701.248829,296.266098 C703.349456,294.141636 706.623964,293.455674 709.328472,294.452336 C708.341935,291.696385 708.937843,288.482455 711.118191,286.277291 C714.119657,283.240903 719.000527,283.240903 722,286.277291 L720.98556,287.304215 C718.544129,284.832737 714.574062,284.834754 712.132631,287.304215 C709.691199,289.773676 709.691199,293.79462 712.132631,296.266098 C712.411651,296.55057 712.411651,297.010568 712.132631,297.293023 C711.851617,297.577495 711.397212,297.577495 711.118191,297.293023 C708.750501,294.900228 704.626973,294.900228 702.263268,297.293023 C700.514453,299.065283 699.966873,301.740402 700.848045,304.05688 Z M748.126603,317.488968 C750.676254,316.705151 752.464568,314.395434 752.549898,311.758757 L752.549898,311.422965 C752.499646,309.874375 751.876521,308.426521 750.770976,307.306558 C749.924732,306.449302 748.873459,305.86463 747.723692,305.594022 L746.218141,305.424151 C745.781953,305.426126 745.347775,305.469581 744.925658,305.558467 C744.46937,305.653279 744.023132,305.797472 743.603025,305.987095 L743,304.695286 C743.518601,304.462207 744.065343,304.284435 744.626156,304.167896 C745.134707,304.063208 745.653308,304.007901 746.173919,304.00395 C746.19402,304.001975 746.216131,304 746.238242,304 C746.519018,304 746.797287,304.014467 747.072217,304.043041 L747.035774,304.026303 C748.091472,301.67889 747.589132,298.873881 745.781887,297.049436 C743.376151,294.622786 739.467321,294.622786 737.063547,297.049436 C736.786868,297.328749 736.341434,297.328749 736.064755,297.049436 C735.927396,296.91077 735.858717,296.728524 735.858717,296.546278 C735.858717,296.36205 735.927396,296.181785 736.064755,296.041138 C737.228377,294.866441 737.870038,293.303481 737.870038,291.641473 C737.870038,289.979465 737.228377,288.416504 736.064755,287.239827 C733.660981,284.819119 728.769057,284.819119 726.367245,287.239827 C724.981887,288.689874 724.41283,290.021065 724.41283,291.829662 L724.41283,320.713732 C724.41283,324.006053 727.997887,327.468734 731.516226,327.573724 L741.421736,327.573724 C742.997434,327.573724 744.51034,326.902186 745.681811,325.685889 C746.851321,324.469593 747.532226,322.855127 747.583245,321.203024 L747.583245,320.85636 C747.534189,319.305285 746.925887,317.853257 745.846642,316.730064 C744.67517,315.509806 743.103396,314.840249 741.421736,314.840249 L741.421736,313.413973 C743.489962,313.413973 745.42083,314.238043 746.85917,315.735633 C747.369467,316.265506 747.79394,316.855361 748.126603,317.488968 Z" id="Fill-16"></path>
            </g>
        </g>
    </g>
</svg>