
<svg width="118px" height="32px" viewBox="0 0 118 32" version="1.1" xmlns="http://www.w3.org/2000/svg" xmlns:xlink="http://www.w3.org/1999/xlink">
    <defs>
        <polygon id="path-1" points="5.47619048e-05 0.444910345 22.7612929 0.444910345 22.7612929 32 5.47619048e-05 32"></polygon>
    </defs>
    <g id="Page-1" stroke="none" stroke-width="1" fill="none" fill-rule="evenodd">
        <g id="Desktop-HD-Copy" transform="translate(-543.000000, -2504.000000)">
            <g id="social" transform="translate(-1.000000, 2384.000000)">
                <g id="github-logo" transform="translate(544.000000, 120.000000)">
                    <g id="Group-3">
                        <mask id="mask-2" fill="white">
                            <use xlink:href="#path-1"></use>
                        </mask>
                        <g id="Clip-2"></g>
                        <path d="M22.306769,13.9505655 L12.5744833,13.9505655 C12.3236738,13.9505655 12.1194119,14.1558069 12.1194119,14.4090483 L12.1194119,19.2029793 C12.1194119,19.4562207 12.3236738,19.6620138 12.5744833,19.6620138 L16.3711262,19.6620138 L16.3711262,25.6173241 C16.3711262,25.6173241 15.5184833,25.9108414 13.1620786,25.9108414 C10.381269,25.9108414 6.49700714,24.8868414 6.49700714,16.2816 C6.49700714,7.67415172 10.5417214,6.54146207 14.3389119,6.54146207 C17.6257214,6.54146207 19.0418643,7.12463448 19.9432452,7.40601379 C20.2258167,7.49318621 20.4881262,7.20904828 20.4881262,6.9558069 L21.5735071,2.32408276 C21.5735071,2.20546207 21.5340786,2.06256552 21.3999119,1.96601379 C21.0341024,1.70284138 18.8014595,0.444910345 13.1620786,0.444910345 C6.66457857,0.444910345 5.47619048e-05,3.22891034 5.47619048e-05,16.6170483 C5.47619048e-05,30.0051862 7.63003095,32.0002207 14.0601738,32.0002207 C19.3841262,32.0002207 22.6139833,29.7083586 22.6139833,29.7083586 C22.7470548,29.6338759 22.7612929,29.4462897 22.7612929,29.3607724 L22.7612929,14.4090483 C22.7612929,14.1558069 22.5581262,13.9505655 22.306769,13.9505655" id="Fill-1" fill="#FEFEFE" mask="url(#mask-2)"></path>
                    </g>
                    <path d="M73,1.46413502 C73,1.20708417 72.7930822,1 72.5335869,1 L66.8767025,1 C66.6177725,1 66.408028,1.20708417 66.408028,1.46413502 C66.408028,1.46524539 66.409724,12.2003109 66.409724,12.2003109 L57.5908413,12.2003109 L57.5908413,1.46413502 C57.5908413,1.20708417 57.3827928,1 57.1244282,1 L51.4669785,1 C51.2097446,1 51,1.20708417 51,1.46413502 L51,30.5353098 C51,30.7918055 51.2097446,31 51.4669785,31 L57.1244282,31 C57.3827928,31 57.5908413,30.7918055 57.5908413,30.5353098 L57.5908413,18.1002665 L66.409724,18.1002665 C66.409724,18.1002665 66.3938942,30.5341994 66.3938942,30.5353098 C66.3938942,30.7918055 66.6042041,31 66.8625687,31 L72.5330215,31 C72.7925168,31 72.9994347,30.7918055 73,30.5353098 L73,1.46413502 Z" id="Fill-4" fill="#FEFEFE"></path>
                    <path d="M34,6.49865746 C34,4.56325278 32.4328115,3 30.4994575,3 C28.5682734,3 27,4.56325278 27,6.49865746 C27,8.43191408 28.5682734,10 30.4994575,10 C32.4328115,10 34,8.43191408 34,6.49865746" id="Fill-6" fill="#FEFEFE"></path>
                    <path d="M33,24.5601952 L33,11.4522777 C33,11.2033623 32.8092708,11 32.5743295,11 L27.4457202,11 C27.2107789,11 27,11.2559653 27,11.5048807 L27,30.2841649 C27,30.8356833 27.3264502,31 27.7480079,31 L32.3681775,31 C32.8755891,31 33,30.7380694 33,30.2754881 L33,24.5601952 Z" id="Fill-8" fill="#FEFEFE"></path>
                    <path d="M94.5344152,11 L88.9776161,11 C88.7224398,11 88.5153889,11.2084202 88.5153889,11.464511 L88.5153889,25.696397 C88.5153889,25.696397 87.1035255,26.7190973 85.1001679,26.7190973 C83.0968103,26.7190973 82.5640739,25.818345 82.5640739,23.8754916 L82.5640739,11.464511 C82.5640739,11.2084202 82.3575825,11 82.1024063,11 L76.4627868,11 C76.2081701,11 76,11.2084202 76,11.464511 L76,24.8150455 C76,30.5876204 79.2479015,32 83.7151651,32 C87.380526,32 90.3357583,29.9939554 90.3357583,29.9939554 C90.3357583,29.9939554 90.4767767,31.0510228 90.5400112,31.1757424 C90.6043649,31.3010162 90.769446,31.427953 90.9490767,31.427953 L94.5366536,31.4118781 C94.7912703,31.4118781 95,31.2034578 95,30.9479213 L94.9983212,11.464511 C94.9983212,11.2084202 94.7907107,11 94.5344152,11" id="Fill-10" fill="#FEFEFE"></path>
                    <path d="M107.81058,26.8168595 C105.851536,26.7602012 104.522753,25.908693 104.522753,25.908693 L104.522753,16.8744257 C104.522753,16.8744257 105.833333,16.105181 107.442548,15.9673489 C109.476109,15.7930158 111.436291,16.3813899 111.436291,21.0284562 C111.436291,25.9288503 110.551195,26.8963989 107.81058,26.8168595 M110.03868,10.7444386 C106.830489,10.7444386 104.647895,12.1151325 104.647895,12.1151325 L104.647895,2.45544518 C104.647895,2.203207 104.437998,2 104.178612,2 L98.4704209,2 C98.2110353,2 98,2.203207 98,2.45544518 L98,30.9823306 C98,31.234024 98.2110353,31.4383206 98.4709898,31.4383206 L102.431741,31.4383206 C102.609784,31.4383206 102.745165,31.3506093 102.84471,31.1964334 C102.942548,31.0433472 103.084755,29.8813082 103.084755,29.8813082 C103.084755,29.8813082 105.419226,32 109.837884,32 C115.025597,32 118,29.4797973 118,20.6863276 C118,11.8934026 113.249147,10.7444386 110.03868,10.7444386" id="Fill-12" fill="#FEFEFE"></path>
                    <path d="M48.4792899,11.635619 L44.4410974,11.635619 C44.4410974,11.635619 44.4351802,6.30331989 44.4351802,6.30224429 C44.4351802,6.10056883 44.3313609,6 44.0973642,6 L38.5954814,6 C38.3819258,6 38.2668101,6.09357741 38.2668101,6.29901748 L38.2668101,11.8104044 C38.2668101,11.8104044 35.5094137,12.4756645 35.3227542,12.5294446 C35.1371705,12.5837625 35,12.7547833 35,12.9591478 L35,16.4220499 C35,16.6710518 35.1995697,16.8716517 35.4459387,16.8716517 L38.2668101,16.8716517 L38.2668101,25.203806 C38.2668101,31.3917468 42.6083916,32 45.5379236,32 C46.8768155,32 48.4782141,31.569759 48.7423346,31.472417 C48.9026358,31.4137967 48.9956966,31.2481539 48.9956966,31.0690661 L49,27.2592822 C49,27.0108181 48.7902098,26.8096804 48.5540613,26.8096804 C48.3184508,26.8096804 47.7165143,26.905409 47.0968263,26.905409 C45.1135019,26.905409 44.4410974,25.9830799 44.4410974,24.789699 L44.4410974,16.8716517 L48.4792899,16.8716517 C48.725121,16.8716517 48.9246907,16.6710518 48.9246907,16.4220499 L48.9246907,12.0841452 C48.9246907,11.835681 48.725121,11.635619 48.4792899,11.635619" id="Fill-14" fill="#FEFEFE"></path>
                </g>
            </g>
        </g>
    </g>
</svg>