
<svg width="48px" height="48px" viewBox="0 0 48 48" version="1.1" xmlns="http://www.w3.org/2000/svg" xmlns:xlink="http://www.w3.org/1999/xlink">
    <g id="Page-1" stroke="none" stroke-width="1" fill="none" fill-rule="evenodd">
        <g id="Desktop-HD" transform="translate(-239.000000, -1394.000000)" fill="#0083CA">
            <g id="value-props" transform="translate(-1.000000, 1105.000000)">
                <path d="M259.312496,307.313466 C257.900042,307.313466 256.75008,308.461866 256.75008,309.875883 C256.75008,311.288337 257.900042,312.436737 259.312496,312.436737 L268.687191,312.436737 C270.099645,312.436737 271.249608,311.288337 271.249608,309.875883 C271.249608,308.461866 270.099645,307.313466 268.687191,307.313466 L259.312496,307.313466 Z M243.68738,301.499593 L284.311058,301.499593 L286.873474,301.499593 L286.873474,290.126526 L241.126526,290.126526 L241.126526,301.499593 L243.68738,301.499593 Z M284.875102,302.626119 L284.875102,336.437518 C284.875102,336.748446 284.623547,337 284.311058,337 L243.68738,337 C243.376453,337 243.124898,336.748446 243.124898,336.437518 L243.124898,302.626119 L240.562482,302.626119 C240.251554,302.626119 240,302.374565 240,302.063637 L240,289.564044 C240,289.251554 240.251554,289 240.562482,289 L287.435956,289 C287.748446,289 288,289.251554 288,289.564044 L288,302.063637 C288,302.374565 287.748446,302.626119 287.435956,302.626119 L284.875102,302.626119 Z M283.748576,302.626119 L244.251424,302.626119 L244.251424,335.873474 L283.748576,335.873474 L283.748576,302.626119 Z M268.687191,313.563263 L259.312496,313.563263 C257.278188,313.563263 255.625116,311.908629 255.625116,309.875883 C255.625116,307.841574 257.278188,306.186941 259.312496,306.186941 L268.687191,306.186941 C270.7215,306.186941 272.374571,307.841574 272.374571,309.875883 C272.374571,311.908629 270.7215,313.563263 268.687191,313.563263 Z" id="Fill-4"></path>
            </g>
        </g>
    </g>
</svg>