
<svg width="119px" height="77px" viewBox="0 0 119 77" version="1.1" xmlns="http://www.w3.org/2000/svg" xmlns:xlink="http://www.w3.org/1999/xlink">
    <defs>
        <polygon id="path-1" points="0.0008 0 118.3918 0 118.3918 76.1089 0.0008 76.1089"></polygon>
    </defs>
    <g id="Page-1" stroke="none" stroke-width="1" fill="none" fill-rule="evenodd">
        <g id="Desktop-HD" transform="translate(-1162.000000, -2189.000000)">
            <g id="social" transform="translate(-1.000000, 2128.000000)">
                <g id="email-icon" transform="translate(1163.000000, 61.000000)">
                    <mask id="mask-2" fill="white">
                        <use xlink:href="#path-1"></use>
                    </mask>
                    <g id="Clip-2"></g>
                    <path d="M43.7358,41.2259 L53.9108,50.3429 C56.8538,52.9729 61.5378,52.9729 64.4808,50.3429 L74.6558,41.2259 L113.4148,73.2899 L4.9768,73.2899 L43.7358,41.2259 Z M115.5728,4.6679 L115.5728,71.4399 L76.7698,39.3309 L115.5728,4.6679 Z M2.8188,4.6679 L41.6228,39.3309 L2.8188,71.4399 L2.8188,4.6679 Z M4.9328,2.8189 L113.4588,2.8189 L62.5878,48.2729 C60.8068,49.8649 57.5858,49.8649 55.8038,48.2729 L4.9328,2.8189 Z M4.2278,-0.0001 C1.9108,-0.0001 0.0008,1.9109 0.0008,4.2279 L0.0008,71.8799 C0.0008,74.1989 1.9108,76.1089 4.2278,76.1089 L114.1638,76.1089 C116.4818,76.1089 118.3918,74.1989 118.3918,71.8799 L118.3918,4.2279 C118.3918,1.9109 116.4818,-0.0001 114.1638,-0.0001 L4.2278,-0.0001 Z" id="Fill-1" fill="#FEFEFE" mask="url(#mask-2)"></path>
                </g>
            </g>
        </g>
    </g>
</svg>