
<svg width="212px" height="58px" viewBox="0 0 212 58" version="1.1" xmlns="http://www.w3.org/2000/svg" xmlns:xlink="http://www.w3.org/1999/xlink">
    <defs>
        <polygon id="path-1" points="0.0001 0.8064 41.5641 0.8064 41.5641 58 0.0001 58"></polygon>
    </defs>
    <g id="Page-1" stroke="none" stroke-width="1" fill="none" fill-rule="evenodd">
        <g id="Desktop-HD" transform="translate(-782.000000, -2198.000000)">
            <g id="social" transform="translate(-1.000000, 2128.000000)">
                <g id="github-logo" transform="translate(783.000000, 69.000000)">
                    <g id="Group-3" transform="translate(0.000000, 0.194500)">
                        <mask id="mask-2" fill="white">
                            <use xlink:href="#path-1"></use>
                        </mask>
                        <g id="Clip-2"></g>
                        <path d="M40.7341,25.2854 L22.9621,25.2854 C22.5041,25.2854 22.1311,25.6574 22.1311,26.1164 L22.1311,34.8054 C22.1311,35.2644 22.5041,35.6374 22.9621,35.6374 L29.8951,35.6374 L29.8951,46.4314 C29.8951,46.4314 28.3381,46.9634 24.0351,46.9634 C18.9571,46.9634 11.8641,45.1074 11.8641,29.5104 C11.8641,13.9094 19.2501,11.8564 26.1841,11.8564 C32.1861,11.8564 34.7721,12.9134 36.4181,13.4234 C36.9341,13.5814 37.4131,13.0664 37.4131,12.6074 L39.3951,4.2124 C39.3951,3.9974 39.3231,3.7384 39.0781,3.5634 C38.4101,3.0864 34.3331,0.8064 24.0351,0.8064 C12.1701,0.8064 0.0001,5.8524 0.0001,30.1184 C0.0001,54.3844 13.9331,58.0004 25.6751,58.0004 C35.3971,58.0004 41.2951,53.8464 41.2951,53.8464 C41.5381,53.7114 41.5641,53.3714 41.5641,53.2164 L41.5641,26.1164 C41.5641,25.6574 41.1931,25.2854 40.7341,25.2854" id="Fill-1" fill="#FEFEFE" mask="url(#mask-2)"></path>
                    </g>
                    <path d="M132.3239,3.9076 C132.3239,3.4446 131.9579,3.0716 131.4989,3.0716 L121.4929,3.0716 C121.0349,3.0716 120.6639,3.4446 120.6639,3.9076 C120.6639,3.9096 120.6669,23.2456 120.6669,23.2456 L105.0679,23.2456 L105.0679,3.9076 C105.0679,3.4446 104.6999,3.0716 104.2429,3.0716 L94.2359,3.0716 C93.7809,3.0716 93.4099,3.4446 93.4099,3.9076 L93.4099,56.2706 C93.4099,56.7326 93.7809,57.1076 94.2359,57.1076 L104.2429,57.1076 C104.6999,57.1076 105.0679,56.7326 105.0679,56.2706 L105.0679,33.8726 L120.6669,33.8726 C120.6669,33.8726 120.6389,56.2686 120.6389,56.2706 C120.6389,56.7326 121.0109,57.1076 121.4679,57.1076 L131.4979,57.1076 C131.9569,57.1076 132.3229,56.7326 132.3239,56.2706 L132.3239,3.9076 Z" id="Fill-4" fill="#FEFEFE"></path>
                    <path d="M59.6169,10.7787 C59.6169,7.1747 56.7279,4.2637 53.1639,4.2637 C49.6039,4.2637 46.7129,7.1747 46.7129,10.7787 C46.7129,14.3787 49.6039,17.2987 53.1639,17.2987 C56.7279,17.2987 59.6169,14.3787 59.6169,10.7787" id="Fill-6" fill="#FEFEFE"></path>
                    <path d="M58.902,45.225 L58.902,21.054 C58.902,20.595 58.531,20.22 58.074,20.22 L48.098,20.22 C47.641,20.22 47.231,20.692 47.231,21.151 L47.231,55.78 C47.231,56.797 47.866,57.1 48.686,57.1 L57.673,57.1 C58.66,57.1 58.902,56.617 58.902,55.764 L58.902,45.225 Z" id="Fill-8" fill="#FEFEFE"></path>
                    <path d="M170.3542,20.2982 L160.4242,20.2982 C159.9682,20.2982 159.5982,20.6742 159.5982,21.1362 L159.5982,46.8112 C159.5982,46.8112 157.0752,48.6562 153.4952,48.6562 C149.9152,48.6562 148.9632,47.0312 148.9632,43.5262 L148.9632,21.1362 C148.9632,20.6742 148.5942,20.2982 148.1382,20.2982 L138.0602,20.2982 C137.6052,20.2982 137.2332,20.6742 137.2332,21.1362 L137.2332,45.2212 C137.2332,55.6352 143.0372,58.1832 151.0202,58.1832 C157.5702,58.1832 162.8512,54.5642 162.8512,54.5642 C162.8512,54.5642 163.1032,56.4712 163.2162,56.6962 C163.3312,56.9222 163.6262,57.1512 163.9472,57.1512 L170.3582,57.1222 C170.8132,57.1222 171.1862,56.7462 171.1862,56.2852 L171.1832,21.1362 C171.1832,20.6742 170.8122,20.2982 170.3542,20.2982" id="Fill-10" fill="#FEFEFE"></path>
                    <path d="M193.5778,48.6244 C190.1338,48.5204 187.7978,46.9574 187.7978,46.9574 L187.7978,30.3744 C187.7978,30.3744 190.1018,28.9624 192.9308,28.7094 C196.5058,28.3894 199.9518,29.4694 199.9518,37.9994 C199.9518,46.9944 198.3958,48.7704 193.5778,48.6244 M197.4948,19.1224 C191.8548,19.1224 188.0178,21.6384 188.0178,21.6384 L188.0178,3.9074 C188.0178,3.4444 187.6488,3.0714 187.1928,3.0714 L177.1578,3.0714 C176.7018,3.0714 176.3308,3.4444 176.3308,3.9074 L176.3308,56.2704 C176.3308,56.7324 176.7018,57.1074 177.1588,57.1074 L184.1218,57.1074 C184.4348,57.1074 184.6728,56.9464 184.8478,56.6634 C185.0198,56.3824 185.2698,54.2494 185.2698,54.2494 C185.2698,54.2494 189.3738,58.1384 197.1418,58.1384 C206.2618,58.1384 211.4908,53.5124 211.4908,37.3714 C211.4908,21.2314 203.1388,19.1224 197.4948,19.1224" id="Fill-12" fill="#FEFEFE"></path>
                    <path d="M87.6618,20.2152 L80.1548,20.2152 C80.1548,20.2152 80.1438,10.3002 80.1438,10.2982 C80.1438,9.9232 79.9508,9.7362 79.5158,9.7362 L69.2878,9.7362 C68.8908,9.7362 68.6768,9.9102 68.6768,10.2922 L68.6768,20.5402 C68.6768,20.5402 63.5508,21.7772 63.2038,21.8772 C62.8588,21.9782 62.6038,22.2962 62.6038,22.6762 L62.6038,29.1152 C62.6038,29.5782 62.9748,29.9512 63.4328,29.9512 L68.6768,29.9512 L68.6768,45.4442 C68.6768,56.9502 76.7478,58.0812 82.1938,58.0812 C84.6828,58.0812 87.6598,57.2812 88.1508,57.1002 C88.4488,56.9912 88.6218,56.6832 88.6218,56.3502 L88.6298,49.2662 C88.6298,48.8042 88.2398,48.4302 87.8008,48.4302 C87.3628,48.4302 86.2438,48.6082 85.0918,48.6082 C81.4048,48.6082 80.1548,46.8932 80.1548,44.6742 L80.1548,29.9512 L87.6618,29.9512 C88.1188,29.9512 88.4898,29.5782 88.4898,29.1152 L88.4898,21.0492 C88.4898,20.5872 88.1188,20.2152 87.6618,20.2152" id="Fill-14" fill="#FEFEFE"></path>
                </g>
            </g>
        </g>
    </g>
</svg>