
<svg width="82px" height="79px" viewBox="0 0 82 79" version="1.1" xmlns="http://www.w3.org/2000/svg" xmlns:xlink="http://www.w3.org/1999/xlink">
    <defs>
        <polygon id="path-1" points="0 0.227059854 81.1849831 0.227059854 81.1849831 79 0 79"></polygon>
    </defs>
    <g id="Page-1" stroke="none" stroke-width="1" fill="none" fill-rule="evenodd">
        <g id="Desktop-HD" transform="translate(-1140.000000, -1382.000000)">
            <g id="value-props" transform="translate(-1.000000, 1105.000000)">
                <g id="Group-8" transform="translate(1141.000000, 276.000000)">
                    <g id="Group-3" transform="translate(0.000000, 0.773200)">
                        <mask id="mask-2" fill="white">
                            <use xlink:href="#path-1"></use>
                        </mask>
                        <g id="Clip-2"></g>
                        <path d="M40.3114,0.2341 C39.5934,0.2701 38.8904,0.4481 38.2434,0.7571 L10.0184,14.2431 C8.5394,14.9501 7.4644,16.2861 7.0984,17.8741 L0.1354,48.1671 C-0.1896,49.5761 0.0754,51.0561 0.8684,52.2701 C0.9634,52.4181 1.0664,52.5591 1.1754,52.6961 L20.7104,76.9861 C21.7354,78.2581 23.2884,79.0011 24.9304,79.000101 L56.2584,78.9931 C57.9004,78.9941 59.4534,78.2541 60.4784,76.9821 L80.0064,52.6891 C81.0314,51.4161 81.4154,49.7481 81.0494,48.1591 L74.0764,17.8671 C73.7094,16.2791 72.6354,14.9421 71.1554,14.2351 L42.9284,0.7571 C42.1144,0.3681 41.2134,0.1881 40.3114,0.2341" id="Fill-1" fill="#0083CA" mask="url(#mask-2)"></path>
                    </g>
                    <path d="M40.537,49.8384 C40.77,49.8294 41.008,49.8774 41.233,49.9854 C41.529,50.1284 41.758,50.3524 41.901,50.6214 L41.933,50.6214 L46.232,58.3894 C45.675,58.5764 45.101,58.7354 44.515,58.8694 C41.226,59.6154 37.949,59.3904 34.981,58.3784 L39.269,50.6244 L39.277,50.6244 C39.534,50.1444 40.022,49.8574 40.537,49.8384 L40.537,49.8384 Z M33.17,46.2614 C33.841,46.2704 34.443,46.7354 34.599,47.4194 C34.672,47.7394 34.6369033,48.0564 34.516,48.3364 L34.541,48.3684 L31.162,56.5334 C28.004,54.5074 25.487,51.4724 24.141,47.7474 L32.862,46.2684 L32.877,46.2854 C32.975,46.2684 33.073,46.2594 33.17,46.2614 L33.17,46.2614 Z M47.943,46.2254 C48.059,46.2194 48.174,46.2294 48.287,46.2504 L48.301,46.2324 L57.098,47.7194 C55.81,51.3364 53.347,54.4694 50.056,56.5664 L46.641,48.3174 L46.651,48.3044 C46.338,47.5744 46.651,46.7204 47.373,46.3724 C47.558,46.2834 47.751,46.2344 47.943,46.2254 L47.943,46.2254 Z M39.23,38.9984 L41.948,38.9984 L43.638,41.1094 L43.031,43.7444 L40.591,44.9184 L38.143,43.7414 L37.537,41.1064 L39.23,38.9984 Z M55.477,32.6094 C56.463,34.2064 57.209,35.9914 57.653,37.9264 C58.093,39.8374 58.203,41.7454 58.021,43.5894 L49.475,41.1274 L49.467,41.0924 C48.701,40.8824 48.231,40.1044 48.409,39.3224 C48.482,39.0034 48.652,38.7334 48.882,38.5324 L48.879,38.5144 L55.477,32.6094 Z M25.658,32.6064 L32.292,38.5394 L32.285,38.5754 C32.884,39.0964 32.973,39.9994 32.473,40.6264 C32.268,40.8824 31.994,41.0554 31.7,41.1354 L31.693,41.1634 L23.188,43.6184 C22.756,39.6604 23.688,35.8134 25.658,32.6064 L25.658,32.6064 Z M42.71,24.4184 C46.553,24.8914 50.107,26.6314 52.831,29.2994 L45.612,34.4174 L45.587,34.4064 C44.946,34.8744 44.043,34.7584 43.544,34.1324 C43.339,33.8754 43.231,33.5744 43.219,33.2704 L43.212,33.2664 L42.71,24.4184 Z M38.475,24.4184 L37.974,33.2804 L37.937,33.2984 C37.904,34.0914 37.252,34.7244 36.45,34.7244 C36.122,34.7244 35.819,34.6184 35.573,34.4394 L35.558,34.4464 L28.293,29.2954 C30.526,27.0994 33.383,25.4774 36.675,24.7294 C37.275,24.5924 37.877,24.4914 38.475,24.4184 L38.475,24.4184 Z M40.591,11.3164 C39.658,11.3164 38.901,12.1554 38.901,13.1924 C38.901,13.2084 38.905,13.2244 38.905,13.2394 C38.903,13.3804 38.897,13.5504 38.901,13.6734 C38.924,14.2714 39.054,14.7284 39.133,15.2784 C39.274,16.4584 39.393,17.4354 39.32,18.3444 C39.249,18.6864 38.996,18.9994 38.771,19.2174 L38.731,19.9324 C37.718,20.0164 36.697,20.1694 35.678,20.4014 C31.292,21.3974 27.515,23.6564 24.64,26.7074 C24.453,26.5794 24.127,26.3464 24.03,26.2744 C23.728,26.3154 23.424,26.4074 23.026,26.1764 C22.27,25.6674 21.582,24.9654 20.749,24.1194 C20.367,23.7144 20.091,23.3284 19.637,22.9394 C19.534,22.8504 19.377,22.7304 19.262,22.6394 C18.907,22.3574 18.488,22.2094 18.085,22.1944 C17.565,22.1774 17.065,22.3804 16.738,22.7904 C16.156,23.5204 16.343,24.6354 17.153,25.2814 C17.162,25.2874 17.17,25.2934 17.179,25.2994 C17.29,25.3904 17.427,25.5054 17.528,25.5814 C18.01,25.9364 18.45,26.1184 18.93,26.4014 C19.939,27.0254 20.777,27.5414 21.441,28.1654 C21.701,28.4424 21.746,28.9294 21.781,29.1404 L22.322,29.6234 C19.424,33.9854 18.082,39.3734 18.875,44.8634 L18.168,45.0694 C17.981,45.3104 17.718,45.6894 17.442,45.8024 C16.573,46.0764 15.595,46.1764 14.414,46.3004 C13.859,46.3464 13.381,46.3184 12.793,46.4304 C12.663,46.4544 12.483,46.5024 12.342,46.5354 L12.327,46.5384 C12.319,46.5404 12.309,46.5444 12.302,46.5464 C11.307,46.7864 10.667,47.7014 10.873,48.6034 C11.078,49.5054 12.051,50.0544 13.053,49.8384 C13.06,49.8364 13.07,49.8364 13.078,49.8344 C13.09,49.8314 13.1,49.8264 13.11,49.8234 C13.25,49.7924 13.425,49.7594 13.547,49.7264 C14.125,49.5714 14.544,49.3444 15.063,49.1454 C16.182,48.7434 17.107,48.4084 18.009,48.2784 C18.386,48.2494 18.782,48.5114 18.979,48.6214 L19.716,48.4954 C21.411,53.7484 24.962,57.9954 29.459,60.6594 L29.152,61.3964 C29.263,61.6824 29.385,62.0684 29.302,62.3514 C28.974,63.2014 28.412,64.0994 27.773,65.1004 C27.463,65.5624 27.146,65.9204 26.867,66.4494 C26.8,66.5764 26.715,66.7714 26.65,66.9044 C26.216,67.8334 26.535,68.9034 27.369,69.3054 C28.208,69.7084 29.25,69.2824 29.7,68.3524 C29.701,68.3514 29.703,68.3504 29.704,68.3484 C29.705,68.3474 29.704,68.3464 29.704,68.3454 C29.768,68.2124 29.859,68.0394 29.913,67.9154 C30.153,67.3664 30.232,66.8974 30.4,66.3664 C30.848,65.2434 31.094,64.0664 31.709,63.3314 C31.877,63.1304 32.152,63.0534 32.436,62.9774 L32.819,62.2834 C36.739,63.7884 41.128,64.1924 45.511,63.1974 C46.511,62.9704 47.476,62.6764 48.409,62.3234 C48.516,62.5144 48.717,62.8814 48.77,62.9734 C49.059,63.0674 49.376,63.1164 49.633,63.4964 C50.094,64.2834 50.408,65.2144 50.792,66.3374 C50.96,66.8674 51.043,67.3384 51.282,67.8864 C51.337,68.0114 51.428,68.1874 51.492,68.3194 C51.942,69.2534 52.987,69.6814 53.827,69.2754 C54.661,68.8744 54.98,67.8044 54.546,66.8754 C54.481,66.7414 54.392,66.5474 54.325,66.4204 C54.046,65.8924 53.729,65.5364 53.42,65.0744 C52.78,64.0734 52.25,63.2424 51.922,62.3924 C51.784,61.9534 51.944,61.6814 52.052,61.3964 C51.987,61.3224 51.85,60.9084 51.769,60.7144 C56.443,57.9544 59.89,53.5504 61.509,48.4624 C61.727,48.4974 62.107,48.5644 62.23,48.5894 C62.484,48.4214 62.719,48.2024 63.177,48.2384 C64.078,48.3694 65.004,48.7044 66.122,49.1054 C66.641,49.3044 67.06,49.5354 67.638,49.6904 C67.76,49.7234 67.935,49.7534 68.075,49.7834 C68.086,49.7864 68.096,49.7924 68.107,49.7944 C68.115,49.7964 68.125,49.7964 68.133,49.7984 C69.135,50.0144 70.107,49.4654 70.312,48.5644 C70.518,47.6614 69.879,46.7464 68.884,46.5064 C68.738,46.4734 68.533,46.4174 68.392,46.3914 C67.805,46.2794 67.326,46.3074 66.771,46.2614 C65.591,46.1374 64.612,46.0364 63.743,45.7634 C63.389,45.6254 63.137,45.2034 63.014,45.0294 L62.332,44.8314 C62.685,42.2724 62.59,39.6094 61.978,36.9434 C61.36,34.2544 60.268,31.7944 58.812,29.6274 C58.987,29.4684 59.318,29.1764 59.411,29.0894 C59.439,28.7864 59.415,28.4694 59.729,28.1334 C60.393,27.5094 61.231,26.9914 62.241,26.3674 C62.721,26.0854 63.164,25.9034 63.645,25.5484 C63.755,25.4684 63.903,25.3414 64.017,25.2494 C64.828,24.6034 65.015,23.4874 64.433,22.7584 C63.85,22.0284 62.724,21.9604 61.913,22.6074 C61.798,22.6974 61.641,22.8174 61.538,22.9064 C61.084,23.2964 60.804,23.6824 60.422,24.0864 C59.589,24.9334 58.9,25.6394 58.144,26.1484 C57.817,26.3384 57.337,26.2734 57.119,26.2594 L56.476,26.7184 C52.813,22.8764 47.825,20.4204 42.453,19.9424 C42.438,19.7174 42.419,19.3114 42.414,19.1884 C42.194,18.9784 41.929,18.7984 41.861,18.3444 C41.788,17.4354 41.911,16.4584 42.053,15.2784 C42.131,14.7284 42.262,14.2714 42.284,13.6734 C42.289,13.5364 42.281,13.3394 42.28,13.1924 C42.28,12.1554 41.523,11.3164 40.591,11.3164 L40.591,11.3164 Z" id="Fill-4" fill="#ffffff"></path>
                    <path d="M40.537,49.8384 C40.77,49.8294 41.008,49.8774 41.233,49.9854 C41.529,50.1284 41.758,50.3524 41.901,50.6214 L41.933,50.6214 L46.232,58.3894 C45.675,58.5764 45.101,58.7354 44.515,58.8694 C41.226,59.6154 37.949,59.3904 34.981,58.3784 L39.269,50.6244 L39.277,50.6244 C39.534,50.1444 40.022,49.8574 40.537,49.8384 Z M33.17,46.2614 C33.841,46.2704 34.443,46.7354 34.599,47.4194 C34.672,47.7394 34.6369033,48.0564 34.516,48.3364 L34.541,48.3684 L31.162,56.5334 C28.004,54.5074 25.487,51.4724 24.141,47.7474 L32.862,46.2684 L32.877,46.2854 C32.975,46.2684 33.073,46.2594 33.17,46.2614 Z M47.943,46.2254 C48.059,46.2194 48.174,46.2294 48.287,46.2504 L48.301,46.2324 L57.098,47.7194 C55.81,51.3364 53.347,54.4694 50.056,56.5664 L46.641,48.3174 L46.651,48.3044 C46.338,47.5744 46.651,46.7204 47.373,46.3724 C47.558,46.2834 47.751,46.2344 47.943,46.2254 Z M39.23,38.9984 L41.948,38.9984 L43.638,41.1094 L43.031,43.7444 L40.591,44.9184 L38.143,43.7414 L37.537,41.1064 L39.23,38.9984 Z M55.477,32.6094 C56.463,34.2064 57.209,35.9914 57.653,37.9264 C58.093,39.8374 58.203,41.7454 58.021,43.5894 L49.475,41.1274 L49.467,41.0924 C48.701,40.8824 48.231,40.1044 48.409,39.3224 C48.482,39.0034 48.652,38.7334 48.882,38.5324 L48.879,38.5144 L55.477,32.6094 Z M25.658,32.6064 L32.292,38.5394 L32.285,38.5754 C32.884,39.0964 32.973,39.9994 32.473,40.6264 C32.268,40.8824 31.994,41.0554 31.7,41.1354 L31.693,41.1634 L23.188,43.6184 C22.756,39.6604 23.688,35.8134 25.658,32.6064 Z M42.71,24.4184 C46.553,24.8914 50.107,26.6314 52.831,29.2994 L45.612,34.4174 L45.587,34.4064 C44.946,34.8744 44.043,34.7584 43.544,34.1324 C43.339,33.8754 43.231,33.5744 43.219,33.2704 L43.212,33.2664 L42.71,24.4184 Z M38.475,24.4184 L37.974,33.2804 L37.937,33.2984 C37.904,34.0914 37.252,34.7244 36.45,34.7244 C36.122,34.7244 35.819,34.6184 35.573,34.4394 L35.558,34.4464 L28.293,29.2954 C30.526,27.0994 33.383,25.4774 36.675,24.7294 C37.275,24.5924 37.877,24.4914 38.475,24.4184 Z M40.591,11.3164 C39.658,11.3164 38.901,12.1554 38.901,13.1924 C38.901,13.2084 38.905,13.2244 38.905,13.2394 C38.903,13.3804 38.897,13.5504 38.901,13.6734 C38.924,14.2714 39.054,14.7284 39.133,15.2784 C39.274,16.4584 39.393,17.4354 39.32,18.3444 C39.249,18.6864 38.996,18.9994 38.771,19.2174 L38.731,19.9324 C37.718,20.0164 36.697,20.1694 35.678,20.4014 C31.292,21.3974 27.515,23.6564 24.64,26.7074 C24.453,26.5794 24.127,26.3464 24.03,26.2744 C23.728,26.3154 23.424,26.4074 23.026,26.1764 C22.27,25.6674 21.582,24.9654 20.749,24.1194 C20.367,23.7144 20.091,23.3284 19.637,22.9394 C19.534,22.8504 19.377,22.7304 19.262,22.6394 C18.907,22.3574 18.488,22.2094 18.085,22.1944 C17.565,22.1774 17.065,22.3804 16.738,22.7904 C16.156,23.5204 16.343,24.6354 17.153,25.2814 C17.162,25.2874 17.17,25.2934 17.179,25.2994 C17.29,25.3904 17.427,25.5054 17.528,25.5814 C18.01,25.9364 18.45,26.1184 18.93,26.4014 C19.939,27.0254 20.777,27.5414 21.441,28.1654 C21.701,28.4424 21.746,28.9294 21.781,29.1404 L22.322,29.6234 C19.424,33.9854 18.082,39.3734 18.875,44.8634 L18.168,45.0694 C17.981,45.3104 17.718,45.6894 17.442,45.8024 C16.573,46.0764 15.595,46.1764 14.414,46.3004 C13.859,46.3464 13.381,46.3184 12.793,46.4304 C12.663,46.4544 12.483,46.5024 12.342,46.5354 L12.327,46.5384 C12.319,46.5404 12.309,46.5444 12.302,46.5464 C11.307,46.7864 10.667,47.7014 10.873,48.6034 C11.078,49.5054 12.051,50.0544 13.053,49.8384 C13.06,49.8364 13.07,49.8364 13.078,49.8344 C13.09,49.8314 13.1,49.8264 13.11,49.8234 C13.25,49.7924 13.425,49.7594 13.547,49.7264 C14.125,49.5714 14.544,49.3444 15.063,49.1454 C16.182,48.7434 17.107,48.4084 18.009,48.2784 C18.386,48.2494 18.782,48.5114 18.979,48.6214 L19.716,48.4954 C21.411,53.7484 24.962,57.9954 29.459,60.6594 L29.152,61.3964 C29.263,61.6824 29.385,62.0684 29.302,62.3514 C28.974,63.2014 28.412,64.0994 27.773,65.1004 C27.463,65.5624 27.146,65.9204 26.867,66.4494 C26.8,66.5764 26.715,66.7714 26.65,66.9044 C26.216,67.8334 26.535,68.9034 27.369,69.3054 C28.208,69.7084 29.25,69.2824 29.7,68.3524 C29.701,68.3514 29.703,68.3504 29.704,68.3484 C29.705,68.3474 29.704,68.3464 29.704,68.3454 C29.768,68.2124 29.859,68.0394 29.913,67.9154 C30.153,67.3664 30.232,66.8974 30.4,66.3664 C30.848,65.2434 31.094,64.0664 31.709,63.3314 C31.877,63.1304 32.152,63.0534 32.436,62.9774 L32.819,62.2834 C36.739,63.7884 41.128,64.1924 45.511,63.1974 C46.511,62.9704 47.476,62.6764 48.409,62.3234 C48.516,62.5144 48.717,62.8814 48.77,62.9734 C49.059,63.0674 49.376,63.1164 49.633,63.4964 C50.094,64.2834 50.408,65.2144 50.792,66.3374 C50.96,66.8674 51.043,67.3384 51.282,67.8864 C51.337,68.0114 51.428,68.1874 51.492,68.3194 C51.942,69.2534 52.987,69.6814 53.827,69.2754 C54.661,68.8744 54.98,67.8044 54.546,66.8754 C54.481,66.7414 54.392,66.5474 54.325,66.4204 C54.046,65.8924 53.729,65.5364 53.42,65.0744 C52.78,64.0734 52.25,63.2424 51.922,62.3924 C51.784,61.9534 51.944,61.6814 52.052,61.3964 C51.987,61.3224 51.85,60.9084 51.769,60.7144 C56.443,57.9544 59.89,53.5504 61.509,48.4624 C61.727,48.4974 62.107,48.5644 62.23,48.5894 C62.484,48.4214 62.719,48.2024 63.177,48.2384 C64.078,48.3694 65.004,48.7044 66.122,49.1054 C66.641,49.3044 67.06,49.5354 67.638,49.6904 C67.76,49.7234 67.935,49.7534 68.075,49.7834 C68.086,49.7864 68.096,49.7924 68.107,49.7944 C68.115,49.7964 68.125,49.7964 68.133,49.7984 C69.135,50.0144 70.107,49.4654 70.312,48.5644 C70.518,47.6614 69.879,46.7464 68.884,46.5064 C68.738,46.4734 68.533,46.4174 68.392,46.3914 C67.805,46.2794 67.326,46.3074 66.771,46.2614 C65.591,46.1374 64.612,46.0364 63.743,45.7634 C63.389,45.6254 63.137,45.2034 63.014,45.0294 L62.332,44.8314 C62.685,42.2724 62.59,39.6094 61.978,36.9434 C61.36,34.2544 60.268,31.7944 58.812,29.6274 C58.987,29.4684 59.318,29.1764 59.411,29.0894 C59.439,28.7864 59.415,28.4694 59.729,28.1334 C60.393,27.5094 61.231,26.9914 62.241,26.3674 C62.721,26.0854 63.164,25.9034 63.645,25.5484 C63.755,25.4684 63.903,25.3414 64.017,25.2494 C64.828,24.6034 65.015,23.4874 64.433,22.7584 C63.85,22.0284 62.724,21.9604 61.913,22.6074 C61.798,22.6974 61.641,22.8174 61.538,22.9064 C61.084,23.2964 60.804,23.6824 60.422,24.0864 C59.589,24.9334 58.9,25.6394 58.144,26.1484 C57.817,26.3384 57.337,26.2734 57.119,26.2594 L56.476,26.7184 C52.813,22.8764 47.825,20.4204 42.453,19.9424 C42.438,19.7174 42.419,19.3114 42.414,19.1884 C42.194,18.9784 41.929,18.7984 41.861,18.3444 C41.788,17.4354 41.911,16.4584 42.053,15.2784 C42.131,14.7284 42.262,14.2714 42.284,13.6734 C42.289,13.5364 42.281,13.3394 42.28,13.1924 C42.28,12.1554 41.523,11.3164 40.591,11.3164 Z" id="Stroke-6" stroke="#ffffff" stroke-width="0.25"></path>
                </g>
            </g>
        </g>
    </g>
</svg>