
<svg width="48px" height="48px" viewBox="0 0 48 48" version="1.1" xmlns="http://www.w3.org/2000/svg" xmlns:xlink="http://www.w3.org/1999/xlink">
    <g id="Page-1" stroke="none" stroke-width="1" fill="none" fill-rule="evenodd">
        <g id="Desktop-HD" transform="translate(-1201.000000, -1959.000000)" fill="#ffffff">
            <g id="key-features" transform="translate(78.000000, 1560.000000)">
                <path d="M1134.5,420 C1135.87805,420 1137,421.121951 1137,422.5 C1137,423.878049 1135.87805,425 1134.5,425 C1133.12195,425 1132,423.878049 1132,422.5 C1132,421.121951 1133.12195,420 1134.5,420 L1134.5,420 Z M1148.78049,433.355075 C1149.54421,433.793965 1150,434.59555 1150,435.500762 C1150,436.878391 1148.87805,438 1147.5,438 C1146.12195,438 1145,436.878391 1145,435.500762 C1145,434.121609 1146.12195,433 1147.5,433 C1147.96494,433 1148.40244,433.12039 1148.78049,433.355075 L1148.78049,433.355075 Z M1159,410.500762 C1159,409.121609 1160.12195,408 1161.5,408 C1162.04421,408 1162.56555,408.17068 1162.99848,408.484608 C1163.63415,408.966169 1164,409.700701 1164,410.500762 C1164,411.878391 1162.87805,413 1161.5,413 C1161.16006,413 1160.82317,412.926852 1160.50915,412.783603 C1159.59299,412.396525 1159,411.500457 1159,410.500762 L1159,410.500762 Z M1123,399 L1123,446.43083 C1123,446.745455 1123.25421,447 1123.56842,447 L1171,447 L1171,445.86166 L1124.13684,445.86166 L1124.13684,423.284585 L1130.95158,423.284585 C1131.22789,425.071146 1132.75947,426.44664 1134.62105,426.44664 C1135.47053,426.44664 1136.24579,426.149407 1136.87421,425.667194 L1144.30474,433.10751 C1143.82316,433.736759 1143.52632,434.513043 1143.52632,435.365217 C1143.52632,437.422134 1145.19684,439.094862 1147.25263,439.094862 C1149.30842,439.094862 1150.97895,437.422134 1150.97895,435.365217 C1150.97895,434.228458 1150.44526,433.188142 1149.60053,432.501976 L1160.47789,413.643478 C1160.79842,413.735178 1161.12684,413.798419 1161.46316,413.798419 C1163.32474,413.798419 1164.85632,412.422925 1165.13263,410.636364 L1170.93684,410.636364 L1170.93684,409.498024 L1165.12474,409.498024 C1164.97947,408.536759 1164.49158,407.667194 1163.69263,407.06166 C1163.03895,406.587352 1162.27,406.337549 1161.46316,406.337549 C1159.40737,406.337549 1157.73684,408.010277 1157.73684,410.068775 C1157.73684,411.349407 1158.40947,412.484585 1159.44842,413.15336 L1148.62158,431.926482 C1148.19211,431.752569 1147.73895,431.633992 1147.25263,431.633992 C1146.45842,431.633992 1145.72421,431.886957 1145.11947,432.313834 L1137.66842,424.851383 C1138.09316,424.24585 1138.34737,423.512253 1138.34737,422.715415 C1138.34737,420.658498 1136.67684,418.98419 1134.62105,418.98419 C1132.75947,418.98419 1131.22789,420.359684 1130.95158,422.146245 L1124.13684,422.146245 L1124.13684,399 L1123,399 Z" id="Fill-1"></path>
            </g>
        </g>
    </g>
</svg>