
<svg width="249px" height="63px" viewBox="0 0 249 63" version="1.1" xmlns="http://www.w3.org/2000/svg" xmlns:xlink="http://www.w3.org/1999/xlink">
    <defs>
        <polygon id="path-1" points="0 62.9972 248.791 62.9972 248.791 0.0002 0 0.0002"></polygon>
    </defs>
    <g id="Page-1" stroke="none" stroke-width="1" fill="none" fill-rule="evenodd">
        <g id="Desktop-HD" transform="translate(-435.000000, -2197.000000)">
            <g id="social" transform="translate(-1.000000, 2128.000000)">
                <g id="slack-logo" transform="translate(436.000000, 69.000000)">
                    <path d="M79.5755,49.597 L82.6655,42.391 C86.0475,44.891 90.4605,46.215 94.8715,46.215 C98.1055,46.215 100.1665,44.965 100.1665,43.054 C100.0935,37.759 80.6805,41.878 80.5335,28.569 C80.4595,21.805 86.4895,16.583 95.0215,16.583 C100.0955,16.583 105.1695,17.833 108.7725,20.701 L105.8875,28.063 C102.5715,25.936 98.4765,24.452 94.5815,24.452 C91.9335,24.452 90.1685,25.702 90.1685,27.321 C90.2415,32.542 109.8025,29.674 110.0225,42.396 C110.0225,49.307 104.1375,54.16 95.7565,54.16 C89.5765,54.156 83.9155,52.684 79.5755,49.597" id="Fill-1" fill="#FEFEFE"></path>
                    <path d="M198.8451,39.7806 C197.3051,42.5016 194.3851,44.3396 191.0351,44.3396 C186.0811,44.3396 182.0631,40.3236 182.0631,35.3666 C182.0631,30.4106 186.0781,26.3946 191.0351,26.3946 C194.3851,26.3946 197.3051,28.2316 198.8451,30.9536 L207.4321,26.1956 C204.2161,20.4586 198.0781,16.5786 191.0351,16.5786 C180.6581,16.5786 172.2461,24.9906 172.2461,35.3666 C172.2461,45.7436 180.6581,54.1556 191.0351,54.1556 C198.0811,54.1556 204.2161,50.2746 207.4311,44.5376 L198.8451,39.7806 Z" id="Fill-3" fill="#FEFEFE"></path>
                    <mask id="mask-2" fill="white">
                        <use xlink:href="#path-1"></use>
                    </mask>
                    <g id="Clip-6"></g>
                    <polygon id="Fill-5" fill="#FEFEFE" mask="url(#mask-2)" points="114.348 53.4182 125.085 53.4182 125.085 0.9382 114.348 0.9382"></polygon>
                    <polygon id="Fill-7" fill="#FEFEFE" mask="url(#mask-2)" points="211.6087 0.9378 211.6087 53.4208 222.3467 53.4208 222.3467 37.6958 235.0697 53.4208 248.7917 53.4208 232.6137 34.7408 247.6147 17.3128 234.4797 17.3128 222.3467 31.8008 222.3467 0.9378"></polygon>
                    <path d="M156.9183,17.3128 L156.9183,21.5788 C155.1523,18.6358 150.8143,16.5788 146.2543,16.5788 C136.8403,16.5788 129.4133,24.8868 129.4133,35.3308 C129.4133,45.7728 136.8403,54.1558 146.2543,54.1558 C150.8133,54.1558 155.1523,52.0968 156.9153,49.1548 L156.9153,53.4178 L167.6503,53.4178 L167.6503,17.3128 L156.9183,17.3128 Z M156.9183,39.8518 C155.3733,42.4248 152.1393,44.3358 148.5353,44.3358 C143.5823,44.3358 139.5643,40.3208 139.5643,35.3648 C139.5643,30.4088 143.5823,26.3928 148.5353,26.3928 C152.1393,26.3928 155.3733,28.3768 156.9183,31.0248 L156.9183,39.8518 Z" id="Fill-8" fill="#FEFEFE" mask="url(#mask-2)"></path>
                    <path d="M13.263,39.7874 C13.263,43.4494 10.293,46.4194 6.631,46.4194 C2.969,46.4194 0,43.4494 0,39.7874 C0,36.1254 2.969,33.1564 6.631,33.1564 L13.263,33.1564 L13.263,39.7874 Z" id="Fill-9" fill="#DF225B" mask="url(#mask-2)"></path>
                    <path d="M16.5785,39.7874 C16.5785,36.1254 19.5475,33.1564 23.2095,33.1564 C26.8715,33.1564 29.8415,36.1254 29.8415,39.7874 L29.8415,56.3654 C29.8415,60.0274 26.8715,62.9974 23.2095,62.9974 C19.5475,62.9974 16.5785,60.0274 16.5785,56.3654 L16.5785,39.7874 Z" id="Fill-10" fill="#DF225B" mask="url(#mask-2)"></path>
                    <path d="M23.2093,13.263 C19.5473,13.263 16.5783,10.293 16.5783,6.631 C16.5783,2.969 19.5473,0 23.2093,0 C26.8713,0 29.8413,2.969 29.8413,6.631 L29.8413,13.263 L23.2093,13.263 Z" id="Fill-11" fill="#39C5EE" mask="url(#mask-2)"></path>
                    <path d="M23.2093,16.5784 C26.8713,16.5784 29.8413,19.5474 29.8413,23.2094 C29.8413,26.8714 26.8713,29.8414 23.2093,29.8414 L6.6313,29.8414 C2.9693,29.8414 0.0003,26.8714 0.0003,23.2094 C0.0003,19.5474 2.9693,16.5784 6.6313,16.5784 L23.2093,16.5784 Z" id="Fill-12" fill="#39C5EE" mask="url(#mask-2)"></path>
                    <path d="M49.7347,23.2093 C49.7347,19.5473 52.7047,16.5783 56.3657,16.5783 C60.0277,16.5783 62.9977,19.5473 62.9977,23.2093 C62.9977,26.8713 60.0277,29.8413 56.3657,29.8413 L49.7347,29.8413 L49.7347,23.2093 Z" id="Fill-13" fill="#2FB67D" mask="url(#mask-2)"></path>
                    <path d="M46.4193,23.2093 C46.4193,26.8713 43.4493,29.8413 39.7873,29.8413 C36.1253,29.8413 33.1563,26.8713 33.1563,23.2093 L33.1563,6.6313 C33.1563,2.9693 36.1253,0.0003 39.7873,0.0003 C43.4493,0.0003 46.4193,2.9693 46.4193,6.6313 L46.4193,23.2093 Z" id="Fill-14" fill="#2FB67D" mask="url(#mask-2)"></path>
                    <path d="M39.7875,49.7347 C43.4495,49.7347 46.4195,52.7047 46.4195,56.3657 C46.4195,60.0277 43.4495,62.9977 39.7875,62.9977 C36.1255,62.9977 33.1565,60.0277 33.1565,56.3657 L33.1565,49.7347 L39.7875,49.7347 Z" id="Fill-15" fill="#EAB12C" mask="url(#mask-2)"></path>
                    <path d="M39.7875,46.4192 C36.1255,46.4192 33.1565,43.4492 33.1565,39.7872 C33.1565,36.1252 36.1255,33.1562 39.7875,33.1562 L56.3655,33.1562 C60.0275,33.1562 62.9975,36.1252 62.9975,39.7872 C62.9975,43.4492 60.0275,46.4192 56.3655,46.4192 L39.7875,46.4192 Z" id="Fill-16" fill="#EAB12C" mask="url(#mask-2)"></path>
                </g>
            </g>
        </g>
    </g>
</svg>