<?xml version="1.0" encoding="utf-8"?>
<!-- Generator: Adobe Illustrator 23.0.3, SVG Export Plug-In . SVG Version: 6.00 Build 0)  -->
<svg version="1.1" id="Layer_1" xmlns="http://www.w3.org/2000/svg" xmlns:xlink="http://www.w3.org/1999/xlink" x="0px" y="0px"
	 viewBox="0 0 600.09 117.87" style="enable-background:new 0 0 600.09 117.87;" xml:space="preserve">
<style type="text/css">
	.st0{fill:#FFFFFF;}
	.st1{fill:#BCBBBB;}
	.st2{fill:#F48024;}
</style>
<path class="st0" d="M135.87,72.91l-6.83-0.61c-5.36-0.43-7.44-2.59-7.44-6.23c0-4.32,3.29-7.01,9.51-7.01
	c4.41,0,8.3,1.04,11.33,3.37l4.07-4.07c-3.81-3.11-9.26-4.58-15.31-4.58c-9.08,0-15.66,4.67-15.66,12.46
	c0,7.01,4.41,10.73,12.72,11.42l7.01,0.61c4.93,0.43,7.09,2.51,7.09,6.23c0,5.02-4.33,7.53-11.33,7.53c-5.28,0-9.86-1.38-13.23-4.93
	l-4.15,4.15c4.67,4.5,10.29,6.14,17.47,6.14c10.29,0,17.3-4.76,17.3-12.97C148.42,76.46,143.31,73.6,135.87,72.91z M189.13,53.79
	c-6.83,0-11.13,1.35-14.9,6.12c-0.05,0.06,4.09,4.09,4.09,4.09c2.51-3.55,5.28-4.84,10.73-4.84c7.78,0,10.9,3.11,10.9,9.34v4.07
	h-12.8c-9.51,0-14.7,4.84-14.7,12.28c0,3.37,1.12,6.57,3.2,8.65c2.68,2.77,6.14,3.89,12.02,3.89c5.71,0,8.82-1.12,12.28-4.58v4.07
	h6.23V67.98C206.17,58.72,200.55,53.79,189.13,53.79z M199.94,81.82c0,3.55-0.69,5.97-2.16,7.35c-2.68,2.59-5.88,2.86-9.51,2.86
	c-6.75,0-9.77-2.34-9.77-7.27c0-4.93,3.11-7.52,9.52-7.52h11.94V81.82z M230.56,59.33c4.07,0,6.57,1.21,9.77,4.76
	c0,0,4.17-4.05,4.14-4.09c-4.37-4.67-8.07-6.2-13.91-6.2c-10.73,0-18.86,7.27-18.86,21.8c0,14.53,8.13,21.8,18.86,21.8
	c5.88,0,9.6-1.56,14.01-6.31l-4.24-4.07c-3.2,3.55-5.71,4.84-9.77,4.84c-4.15,0-7.61-1.64-9.86-4.84
	c-1.99-2.77-2.77-6.06-2.77-11.42c0-5.36,0.78-8.65,2.77-11.42C222.95,60.97,226.41,59.33,230.56,59.33z M283.9,54.25h-7.76
	l-19.3,18.79l0.03-37.75h-6.23v61.59h6.23l-0.03-15.53l7.55-7.58l14.27,23.11h7.7l-17.66-27.43L283.9,54.25z M313.16,52.03
	c-6.55,0-10.98,2.55-13.7,5.45c-4,4.17-5.02,9.19-5.02,17.19c0,8.08,1.02,13.1,5.02,17.27c2.72,2.89,7.15,5.45,13.7,5.45
	c6.55,0,11.06-2.55,13.79-5.45c4-4.17,5.02-9.19,5.02-17.27c0-8-1.02-13.02-5.02-17.19C324.23,54.59,319.72,52.03,313.16,52.03z
	 M318.36,85.48c-1.28,1.28-2.98,1.96-5.19,1.96s-3.83-0.68-5.11-1.96c-2.3-2.3-2.55-6.21-2.55-10.81c0-4.6,0.25-8.43,2.55-10.72
	c1.28-1.28,2.89-1.96,5.11-1.96s3.91,0.68,5.19,1.96c2.3,2.3,2.55,6.13,2.55,10.72C320.91,79.26,320.65,83.18,318.36,85.48z
	 M361.43,52.54l-8.93,27.4l-9.02-27.4h-11.66l16.34,44.33h8.68l16.25-44.33H361.43z M391.9,52.03c-11.49,0-19.32,8.17-19.32,22.64
	c0,17.96,10.04,22.72,20.51,22.72c8,0,12.34-2.47,16.85-6.98l-6.72-6.55c-2.81,2.81-5.19,4.17-10.04,4.17c-6.21,0-9.7-4.17-9.7-9.87
	h27.74v-4.94C411.22,61.05,404.24,52.03,391.9,52.03z M383.48,70.58c0.08-1.96,0.34-3.15,1.02-4.77c1.19-2.64,3.66-4.59,7.4-4.59
	c3.74,0,6.21,1.96,7.4,4.59c0.68,1.62,0.94,2.81,1.02,4.77H383.48z M427.54,56.8v-4.25h-10.81v44.33h11.06V70.16
	c0-5.62,3.74-8.17,7.15-8.17c2.72,0,4.13,0.91,5.84,2.61l8.37-8.39c-3.06-3.06-6.13-4.17-10.47-4.17
	C433.92,52.03,429.66,54.25,427.54,56.8z M452.58,47.92v48.91h11.06V61.88h8.17v-8.42h-8.17V48.6c0-2.55,1.28-4,3.91-4h4.26v-9.36
	h-6.3C456.5,35.24,452.58,41.63,452.58,47.92z M517.36,52.03c-6.55,0-10.98,2.55-13.7,5.45c-4,4.17-5.02,9.19-5.02,17.19
	c0,8.08,1.02,13.1,5.02,17.27c2.72,2.89,7.15,5.45,13.7,5.45c6.55,0,11.06-2.55,13.79-5.45c4-4.17,5.02-9.19,5.02-17.27
	c0-8-1.02-13.02-5.02-17.19C528.42,54.59,523.91,52.03,517.36,52.03z M522.55,85.48c-1.28,1.28-2.98,1.96-5.19,1.96
	c-2.21,0-3.83-0.68-5.11-1.96c-2.3-2.3-2.55-6.21-2.55-10.81c0-4.6,0.25-8.43,2.55-10.72c1.28-1.28,2.89-1.96,5.11-1.96
	c2.21,0,3.91,0.68,5.19,1.96c2.3,2.3,2.55,6.13,2.55,10.72C525.1,79.26,524.85,83.18,522.55,85.48z M588.43,52.54l-7.15,27.4
	l-9.1-27.4h-8.08l-9.02,27.4l-7.15-27.4h-11.74l13.62,44.33h9.11l9.28-27.83l9.28,27.83h9.1l13.53-44.33H588.43z M488.14,83.52
	V35.24h-11.06V84.2c0,6.3,3.83,12.68,12.93,12.68h6.3v-9.36h-4.25C489.24,87.52,488.14,86.16,488.14,83.52z M165.69,61.01l5.76-5.76
	h-11.79v-14h-6.23v44.2c0,6.31,3.63,11.42,10.9,11.42h4.41v-5.36h-3.29c-3.98,0-5.8-2.34-5.8-6.23V61.01H165.69z"/>
<polygon class="st1" points="84.07,107.35 84.07,75.8 94.59,75.8 94.59,117.87 0,117.87 0,75.8 10.52,75.8 10.52,107.35 "/>
<path class="st2" d="M22.09,72.9l51.46,10.81l2.16-10.29L24.25,62.61L22.09,72.9z M28.9,48.26l47.67,22.2L81,60.92l-47.67-22.2
	L28.9,48.26z M42.09,24.87l40.4,33.65l6.73-8.08l-40.4-33.65L42.09,24.87z M68.17,0l-8.44,6.28l31.38,42.19l8.44-6.28L68.17,0z
	 M21.04,96.83l52.58,0V86.32l-52.58,0V96.83z"/>
</svg>
