
<svg width="117px" height="95px" viewBox="0 0 117 95" version="1.1" xmlns="http://www.w3.org/2000/svg" xmlns:xlink="http://www.w3.org/1999/xlink">
    <g id="Page-1" stroke="none" stroke-width="1" fill="none" fill-rule="evenodd">
        <g id="Desktop-HD" transform="translate(-157.000000, -2181.000000)" fill="#FEFEFE">
            <g id="social" transform="translate(-1.000000, 2128.000000)">
                <path d="M194.79662,148 C238.947582,148 263.093776,111.453805 263.093776,79.7639139 C263.093776,78.7257659 263.071858,77.6915993 263.024038,76.6644001 C267.710414,73.2792213 271.78509,69.0559595 275,64.2464377 C270.699174,66.1555153 266.069584,67.441505 261.214842,68.0217929 C266.170206,65.053665 269.975894,60.3556221 271.770146,54.755794 C267.130594,57.5029546 261.995904,59.5016135 256.528466,60.5765894 C252.146943,55.9153745 245.910397,53 239.006361,53 C225.749217,53 214.998646,63.7408009 214.998646,76.9799254 C214.998646,78.8631239 215.209852,80.6925737 215.621304,82.449363 C195.672326,81.4470475 177.981855,71.9036503 166.144372,57.392471 C164.081131,60.9349147 162.893597,65.053665 162.893597,69.446136 C162.893597,77.7662504 167.130662,85.1109237 173.574429,89.4088366 C169.638232,89.2874041 165.938147,88.2064561 162.703312,86.4078622 C162.697335,86.5083924 162.697335,86.6089225 162.697335,86.7144294 C162.697335,98.3301412 170.973212,108.026822 181.955909,110.225546 C179.939493,110.773983 177.818469,111.068606 175.628704,111.068606 C174.081522,111.068606 172.57718,110.916317 171.11468,110.636625 C174.171185,120.164096 183.031863,127.098686 193.539348,127.293774 C185.32225,133.725714 174.974166,137.559794 163.726465,137.559794 C161.789748,137.559794 159.87993,137.448315 158,137.227348 C168.624046,144.029557 181.238607,148 194.79662,148" id="twitter-logo"></path>
            </g>
        </g>
    </g>
</svg>