<?xml version="1.0" encoding="utf-8"?>
<!-- Generator: Adobe Illustrator 23.0.3, SVG Export Plug-In . SVG Version: 6.00 Build 0)  -->
<svg version="1.1" id="Layer_1" xmlns="http://www.w3.org/2000/svg" xmlns:xlink="http://www.w3.org/1999/xlink" x="0px" y="0px"
	 viewBox="0 0 319.02 72.62" style="enable-background:new 0 0 319.02 72.62;" xml:space="preserve">
<style type="text/css">
	.st0{fill:#EC2024;}
	.st1{fill:#FFFFFF;}
</style>
<g>
	<g>
		<path class="st0" d="M100.08,12.59c-1.15-4.31-4.54-7.7-8.85-8.85c-7.8-2.09-39.09-2.09-39.09-2.09s-31.29,0-39.09,2.09
			C8.74,4.9,5.35,8.29,4.2,12.59c-2.09,7.8-2.09,24.08-2.09,24.08s0,16.28,2.09,24.08c1.15,4.31,4.54,7.7,8.85,8.85
			c7.8,2.09,39.09,2.09,39.09,2.09s31.29,0,39.09-2.09c4.31-1.15,7.7-4.54,8.85-8.85c2.09-7.8,2.09-24.08,2.09-24.08
			S102.17,20.4,100.08,12.59z"/>
		<polygon class="st1" points="42.14,51.69 68.13,36.68 42.14,21.67 		"/>
	</g>
	<g>
		<g>
			<path class="st1" d="M147.35,65.38c-1.98-1.33-3.39-3.41-4.22-6.23c-0.84-2.81-1.25-6.56-1.25-11.23v-6.37
				c0-4.72,0.48-8.52,1.43-11.38c0.95-2.86,2.44-4.95,4.47-6.26c2.03-1.31,4.69-1.97,7.98-1.97c3.24,0,5.84,0.67,7.8,2
				c1.96,1.34,3.39,3.42,4.29,6.26c0.91,2.84,1.36,6.62,1.36,11.34v6.37c0,4.68-0.44,8.43-1.32,11.27
				c-0.88,2.84-2.31,4.91-4.29,6.23c-1.98,1.31-4.66,1.97-8.05,1.97C152.06,67.38,149.33,66.71,147.35,65.38z M158.44,58.51
				c0.55-1.43,0.82-3.77,0.82-7.01V37.83c0-3.15-0.28-5.45-0.82-6.91c-0.55-1.45-1.52-2.18-2.9-2.18c-1.34,0-2.28,0.73-2.83,2.18
				c-0.55,1.46-0.82,3.76-0.82,6.91V51.5c0,3.24,0.26,5.58,0.79,7.01c0.52,1.43,1.48,2.15,2.86,2.15
				C156.93,60.65,157.89,59.94,158.44,58.51z"/>
			<path class="st1" d="M299.33,48.02v2.22c0,2.82,0.08,4.93,0.25,6.33c0.17,1.41,0.51,2.43,1.04,3.08
				c0.52,0.64,1.33,0.97,2.43,0.97c1.48,0,2.49-0.57,3.04-1.72c0.55-1.14,0.85-3.05,0.89-5.72l8.52,0.5
				c0.05,0.38,0.07,0.91,0.07,1.57c0,4.06-1.11,7.08-3.33,9.09s-5.36,3.01-9.41,3.01c-4.87,0-8.28-1.53-10.23-4.58
				c-1.96-3.05-2.93-7.77-2.93-14.17v-7.66c0-6.58,1.01-11.39,3.04-14.42c2.03-3.03,5.5-4.54,10.41-4.54c3.39,0,5.99,0.62,7.8,1.86
				c1.81,1.24,3.09,3.17,3.83,5.8c0.74,2.62,1.11,6.25,1.11,10.88v7.51H299.33z M300.58,29.56c-0.5,0.62-0.84,1.63-1,3.04
				c-0.17,1.41-0.25,3.54-0.25,6.4v3.15h7.23v-3.15c0-2.81-0.1-4.95-0.29-6.4c-0.19-1.45-0.54-2.48-1.04-3.08
				c-0.5-0.6-1.28-0.89-2.33-0.89C301.86,28.63,301.08,28.94,300.58,29.56z"/>
			<path class="st1" d="M123.3,47.2L112.07,6.63h9.8l3.94,18.39c1,4.53,1.74,8.4,2.22,11.59h0.29c0.33-2.29,1.07-6.13,2.22-11.52
				l4.08-18.46h9.8L133.04,47.2v19.46h-9.73V47.2z"/>
			<path class="st1" d="M201.09,22.8v43.86h-7.73l-0.86-5.37h-0.21c-2.1,4.06-5.25,6.08-9.45,6.08c-2.91,0-5.06-0.95-6.44-2.86
				c-1.38-1.91-2.08-4.89-2.08-8.94V22.8h9.87V55c0,1.96,0.21,3.35,0.64,4.19c0.43,0.84,1.14,1.25,2.15,1.25
				c0.86,0,1.68-0.26,2.47-0.79c0.79-0.52,1.37-1.19,1.75-2V22.8H201.09z"/>
			<path class="st1" d="M251.74,22.8v43.86h-7.73l-0.86-5.37h-0.21c-2.1,4.06-5.25,6.08-9.45,6.08c-2.91,0-5.06-0.95-6.44-2.86
				c-1.38-1.91-2.08-4.89-2.08-8.94V22.8h9.87V55c0,1.96,0.21,3.35,0.64,4.19c0.43,0.84,1.14,1.25,2.15,1.25
				c0.86,0,1.68-0.26,2.47-0.79c0.79-0.52,1.37-1.19,1.75-2V22.8H251.74z"/>
			<path class="st1" d="M227.93,14.57h-9.8v52.09h-9.66V14.57h-9.8V6.63h29.27V14.57z"/>
			<path class="st1" d="M284.43,29.81c-0.6-2.77-1.56-4.77-2.9-6.01c-1.34-1.24-3.17-1.86-5.51-1.86c-1.81,0-3.51,0.51-5.08,1.54
				c-1.57,1.03-2.79,2.37-3.65,4.04h-0.07l0-23.11h-9.52v62.25h8.16l1-4.15h0.21c0.76,1.48,1.91,2.65,3.43,3.51
				c1.53,0.86,3.22,1.29,5.08,1.29c3.34,0,5.8-1.54,7.37-4.62c1.57-3.08,2.36-7.88,2.36-14.42v-6.94
				C285.32,36.42,285.02,32.58,284.43,29.81z M275.37,47.7c0,3.2-0.13,5.7-0.39,7.51c-0.26,1.81-0.7,3.1-1.32,3.86
				c-0.62,0.76-1.46,1.14-2.5,1.14c-0.81,0-1.56-0.19-2.25-0.57c-0.69-0.38-1.25-0.95-1.68-1.72v-24.9
				c0.33-1.19,0.91-2.17,1.72-2.93c0.81-0.76,1.69-1.14,2.65-1.14c1,0,1.78,0.39,2.33,1.18c0.55,0.79,0.93,2.11,1.14,3.97
				c0.21,1.86,0.32,4.51,0.32,7.94V47.7z"/>
		</g>
	</g>
</g>
</svg>
