<?xml version="1.0" encoding="UTF-8"?>
<svg width="44px" height="31px" viewBox="0 0 44 31" version="1.1" xmlns="http://www.w3.org/2000/svg" xmlns:xlink="http://www.w3.org/1999/xlink">
    <!-- Generator: Sketch 59.1 (86144) - https://sketch.com -->
    <title>Mobile</title>
    <desc>Created with Sketch.</desc>
    <g id="Mobile" stroke="none" stroke-width="1" fill="none" fill-rule="evenodd">
        <g id="dev-icon" transform="translate(2.000000, 2.000000)" fill="#000000" fill-rule="nonzero">
            <g id="noun_user-profile_2799221">
                <path d="M11.7857127,0 C15.8540727,0 19.1373107,3.18461538 19.1373107,7.13076923 C19.1373107,9.76153846 17.5670664,12.1153846 15.3544496,13.3615385 C19.5655591,14.6076923 22.848797,18.0692308 23.5625444,22.5 C23.7052939,23.3307692 23.2770455,24.2307692 22.4919234,24.6461538 C19.4941844,26.2384615 15.6399485,27 11.7857127,27 C7.93147685,27 4.14861575,26.2384615 1.15087677,24.6461538 C0.294379913,24.2307692 -0.062493776,23.4 0.00888096177,22.5 C0.794003077,18.0692308 4.07724101,14.6076923 8.28835054,13.3615385 C6.00435893,12.1153846 4.50548944,9.76153846 4.50548944,7.13076923 C4.50548944,3.18461538 7.78872738,0 11.7857127,0 Z M11.7857127,14.1923077 C6.71810631,14.1230769 2.29287257,17.8615385 1.43637572,22.7076923 C1.36500098,22.9846154 1.57912519,23.3307692 1.79324941,23.4692308 C4.57686418,24.8538462 8.2169758,25.6153846 11.7857127,25.6153846 C15.4258243,25.6153846 18.9945612,24.8538462 21.778176,23.4692308 C22.0636749,23.2615385 22.2064244,22.9846154 22.1350497,22.7076923 C21.3499275,17.8615385 16.9246938,14.1230769 11.7857127,14.1923077 Z M11.7857127,12.8076923 C15.0689506,12.8076923 17.7098159,10.2461538 17.7098159,7.13076923 C17.7098159,3.94615385 15.0689506,1.38461538 11.7857127,1.38461538 C8.57384949,1.38461538 5.9329842,3.94615385 5.9329842,7.13076923 C5.9329842,10.2461538 8.57384949,12.8076923 11.7857127,12.8076923 Z" id="Shape"></path>
            </g>
            <path d="M35.853297,10 C35.6061471,9.99899513 35.3839555,9.85372514 35.2903235,9.63192506 C35.1966916,9.41012498 35.250057,9.15547123 35.4255371,8.98670121 L38.5237407,5.98235919 L35.4255371,2.97801716 C35.2179045,2.74290797 35.2318644,2.39244058 35.4575805,2.17356268 C35.6832966,1.95468478 36.0447133,1.94114774 36.2871677,2.14249009 L39.8192419,5.56163279 C39.9349281,5.67289809 40,5.82435714 40,5.98235919 C40,6.14036123 39.9349281,6.29182028 39.8192419,6.40308558 L36.2871677,9.82222828 C36.1728511,9.93532407 36.0166071,9.99934259 35.853297,10 Z M27.1415328,9.82222828 C27.3786188,9.59110286 27.3786188,9.21782664 27.1415328,8.98670121 L24.0413195,5.98235919 L27.1415328,2.97801716 C27.3493002,2.74290797 27.3353312,2.39244058 27.1094687,2.17356268 C26.8836062,1.95468478 26.5219551,1.94114774 26.2793433,2.14249009 L22.7449779,5.56163279 C22.6292166,5.67289809 22.5641026,5.82435714 22.5641026,5.98235919 C22.5641026,6.14036123 22.6292166,6.29182028 22.7449779,6.40308558 L26.2793433,9.82222828 C26.3937341,9.93532407 26.5500795,9.99934259 26.7134955,10 C26.8747856,9.99777368 27.0286347,9.93387737 27.1415328,9.82222828 L27.1415328,9.82222828 Z M30.0600356,9.67533946 L33.5943867,2.85156511 C33.7456375,2.561346 33.6252054,2.20789644 33.3248695,2.06057397 C33.0252374,1.91875936 32.662944,2.03426266 32.5101924,2.3203024 L28.9697158,9.14407675 C28.818465,9.43429586 28.9388972,9.78774542 29.2392331,9.93506789 C29.3250224,9.97603189 29.4191508,9.99820538 29.5148757,10 C29.7455324,9.9993263 29.9562407,9.87384261 30.0600356,9.67533946 L30.0600356,9.67533946 Z" id="Shape"></path>
        </g>
    </g>
</svg>