<?xml version="1.0" encoding="UTF-8"?>
<svg width="36px" height="28px" viewBox="0 0 36 28" version="1.1" xmlns="http://www.w3.org/2000/svg" xmlns:xlink="http://www.w3.org/1999/xlink">
    <!-- Generator: Sketch 59.1 (86144) - https://sketch.com -->
    <title>Mobile</title>
    <desc>Created with Sketch.</desc>
    <g id="Mobile" stroke="none" stroke-width="1" fill="none" fill-rule="evenodd">
        <path d="M18.5144097,5.00000334 C19.0015123,5.00000334 19.487421,5.04762334 19.9649851,5.14221948 C23.0526897,5.72538827 25.4688623,8.10434504 26.0650869,11.1483627 L26.3148549,12.4272733 L27.6117269,12.6546352 C30.3281656,13.1153572 32.2290682,15.5579516 31.9777095,18.2647725 C31.7263509,20.9715934 29.4071932,23.0330877 26.651081,22.9996012 L10.348919,22.9996012 C7.5928068,23.0330877 5.2736491,20.9715934 5.02229046,18.2647725 C4.77093182,15.5579516 6.67183444,13.1153572 9.38827309,12.6546352 L10.6755387,12.4272733 L10.9253066,11.1483627 C11.623807,7.56425451 14.8135071,4.98014732 18.5144097,5.00000334 L18.5144097,5.00000334 Z M18.5096971,3.00000334 C13.854078,2.99619091 9.85272139,6.25653561 8.97746631,10.766962 C5.27604895,11.4279982 2.69641165,14.7640857 3.02879618,18.4600141 C3.36118071,22.1559425 6.49589564,24.992005 10.257481,25.0000033 L26.742519,25.0000033 C30.5041044,24.992005 33.6388193,22.1559425 33.9712038,18.4600141 C34.3035883,14.7640857 31.723951,11.4279982 28.0225337,10.766962 C27.2752085,6.91881054 24.224253,3.90934332 20.3230513,3.17218057 C19.725202,3.06026233 19.1182117,3.00262998 18.5096971,3.00000334 Z" id="Fill" fill="#282828"></path>
    </g>
</svg>