<?xml version="1.0" encoding="UTF-8"?>
<svg width="48px" height="47px" viewBox="0 0 48 47" version="1.1" xmlns="http://www.w3.org/2000/svg" xmlns:xlink="http://www.w3.org/1999/xlink">
    <!-- Generator: Sketch 59.1 (86144) - https://sketch.com -->
    <title>Mobile</title>
    <desc>Created with Sketch.</desc>
    <g id="Mobile" stroke="none" stroke-width="1" fill="none" fill-rule="evenodd">
        <g id="pictograms/data/analytics-03" transform="translate(3.000000, 2.000000)" fill="#0062FF">
            <path d="M10.973025,18.8473688 C12.159525,18.8473688 13.125525,19.8133688 13.125525,20.9998688 C13.125525,22.1863688 12.159525,23.1523688 10.973025,23.1523688 C9.786525,23.1523688 8.820525,22.1863688 8.820525,20.9998688 C8.820525,19.8133688 9.786525,18.8473688 10.973025,18.8473688 L10.973025,18.8473688 Z M22.575525,29.6531813 C23.2330875,30.0311813 23.625525,30.7215563 23.625525,31.5011813 C23.625525,32.6876813 22.659525,33.6536812 21.473025,33.6536812 C20.286525,33.6536812 19.320525,32.6876813 19.320525,31.5011813 C19.320525,30.3133688 20.286525,29.3473688 21.473025,29.3473688 C21.8733375,29.3473688 22.250025,29.4510563 22.575525,29.6531813 L22.575525,29.6531813 Z M31.133025,10.5011812 C31.133025,9.31336875 32.099025,8.34736875 33.285525,8.34736875 C33.7540875,8.34736875 34.2029625,8.49436875 34.5757125,8.76474375 C35.123025,9.17949375 35.438025,9.81211875 35.438025,10.5011812 C35.438025,11.6876813 34.472025,12.6536812 33.285525,12.6536812 C32.9928375,12.6536812 32.702775,12.5906813 32.4324,12.4673063 C31.6435875,12.1339312 31.133025,11.3621813 31.133025,10.5011812 L31.133025,10.5011812 Z M1.313025,1.31236875 L1.313025,40.6873688 C1.313025,40.9485562 1.5243375,41.1598688 1.785525,41.1598688 L41.213025,41.1598688 L41.213025,40.2148688 L2.258025,40.2148688 L2.258025,21.4723688 L7.922775,21.4723688 C8.1524625,22.9554938 9.4255875,24.0973688 10.973025,24.0973688 C11.67915,24.0973688 12.3235875,23.8506188 12.8459625,23.4503063 L19.0225875,29.6269313 C18.622275,30.1493063 18.375525,30.7937438 18.375525,31.5011812 C18.375525,33.2087438 19.76415,34.5973688 21.473025,34.5973688 C23.1819,34.5973688 24.570525,33.2087438 24.570525,31.5011812 C24.570525,30.5574938 24.1269,29.6938688 23.4247125,29.1242438 L32.466525,13.4687438 C32.7329625,13.5448688 33.0059625,13.5973688 33.285525,13.5973688 C34.8329625,13.5973688 36.1060875,12.4554938 36.335775,10.9723688 L41.160525,10.9723688 L41.160525,10.0273688 L36.3292125,10.0273688 C36.2084625,9.22936875 35.8029,8.50749375 35.138775,8.00480625 C34.5954,7.61105625 33.9562125,7.40368125 33.285525,7.40368125 C31.57665,7.40368125 30.188025,8.79230625 30.188025,10.5011812 C30.188025,11.5643063 30.74715,12.5066813 31.610775,13.0618688 L22.6109625,28.6464938 C22.2539625,28.5021188 21.877275,28.4036813 21.473025,28.4036813 C20.8128375,28.4036813 20.202525,28.6136812 19.6998375,28.9680563 L13.50615,22.7730563 C13.8592125,22.2703688 14.070525,21.6613688 14.070525,20.9998688 C14.070525,19.2923063 12.6819,17.9023688 10.973025,17.9023688 C9.4255875,17.9023688 8.1524625,19.0442437 7.922775,20.5273688 L2.258025,20.5273688 L2.258025,1.31236875 L1.313025,1.31236875 Z" id="Fill-1"></path>
        </g>
    </g>
</svg>