<?xml version="1.0" encoding="UTF-8"?>
<svg width="48px" height="45px" viewBox="0 0 48 45" version="1.1" xmlns="http://www.w3.org/2000/svg" xmlns:xlink="http://www.w3.org/1999/xlink">
    <!-- Generator: Sketch 59.1 (86144) - https://sketch.com -->
    <title>Mobile</title>
    <desc>Created with Sketch.</desc>
    <defs>
        <linearGradient x1="50%" y1="1089.396%" x2="50%" y2="-159.5%" id="linearGradient-1">
            <stop stop-color="#473788" offset="30.33%"></stop>
            <stop stop-color="#2C2255" offset="87.2%"></stop>
        </linearGradient>
        <linearGradient x1="49.999%" y1="896.537%" x2="49.999%" y2="-352.359%" id="linearGradient-2">
            <stop stop-color="#473788" offset="30.33%"></stop>
            <stop stop-color="#2C2255" offset="87.2%"></stop>
        </linearGradient>
        <linearGradient x1="49.999%" y1="215.17%" x2="49.999%" y2="-166.715%" id="linearGradient-3">
            <stop stop-color="#473788" offset="30.33%"></stop>
            <stop stop-color="#2C2255" offset="86.31%"></stop>
        </linearGradient>
    </defs>
    <g id="Mobile" stroke="none" stroke-width="1" fill="none" fill-rule="evenodd">
        <g id="eclipse-11" transform="translate(2.000000, 2.000000)" fill-rule="nonzero">
            <path d="M12.427051,27.1202436 L5.74702503,27.1202436 C6.63150268,30.1496205 8.27273802,32.8647728 10.675512,35.2645071 C14.5060857,39.0897603 19.1121993,41 24.498634,41 C25.5753746,41 26.6186484,40.9198668 27.6318704,40.7672727 C31.6890274,40.1557027 35.2412809,38.3240618 38.2848743,35.2645071 C40.7030157,32.8656253 42.3558619,30.1496205 43.2471695,27.1202436 L12.427051,27.1202436 L12.427051,27.1202436 Z M8.7436626,18.0610974 L5.25407389,18.0610974 C5.12396228,18.8383935 5.03912842,19.6225731 5,20.4096828 L43.9988048,20.4096828 C43.9590203,19.6083506 43.8719386,18.8266254 43.7431941,18.0610974 M5,22.5906705 C5.03944292,23.3925142 5.12601245,24.1740689 5.25407389,24.939256 L43.7438771,24.939256 C43.8749173,24.1620335 43.9604369,23.3778395 44,22.5906705 M43.2480233,15.8795982 C42.3575694,12.8418671 40.7043817,10.1139275 38.2848743,7.69748459 C35.2493061,4.66657327 31.7072975,2.84806057 27.6631174,2.23632013 C26.6158003,2.07819165 25.5580267,1.99919815 24.4988048,2.00000614 C19.1123701,2.00000614 14.5059149,3.89985176 10.6756828,7.69765509 C8.27205502,10.1139275 6.62979519,12.8418671 5.74600054,15.8795982" id="Shape" fill="#2C2255"></path>
            <path d="M3.69046641,20.5001717 C3.69046641,10.1406305 12.0817452,1.53323339 22.9981482,0.0192298028 C22.727414,0.0101299854 22.4551983,0 22.1816864,0 C9.93161196,0 0,9.17862527 0,20.5001717 C0,31.8222332 9.9312416,41 22.1816864,41 C22.4561242,41 22.7281547,40.9903851 23,40.9811136 C12.0817452,39.4672817 3.69046641,30.8597129 3.69046641,20.5001717 Z" id="Path" fill="#F7941E"></path>
            <g id="Group" transform="translate(11.000000, 18.000000)">
                <path d="M26.9927442,2.39819946 C26.9279523,1.59349494 26.7906156,0.796230289 26.5823951,0.0160481771 L0.41968786,0.0160481771 C0.211284933,0.796205339 0.0738309773,1.59347605 0.00899157546,2.39819946 L26.9927442,2.39819946 L26.9927442,2.39819946 Z" id="Path" fill="url(#linearGradient-1)"></path>
                <path d="M26.9927442,4.61070353 L0.00933874054,4.61070353 C0.0739211754,5.41549114 0.211261032,6.21283187 0.41968786,6.99302775 L26.5827423,6.99302775 C26.7908585,6.21277906 26.9280792,5.41545598 26.9927442,4.61070353 L26.9927442,4.61070353 Z" id="Path" fill="url(#linearGradient-2)"></path>
                <path d="M13.5010415,16.9954692 C18.9341749,16.9954692 23.617779,13.8064128 25.7743684,9.20518595 L1.22771457,9.20518595 C3.38447761,13.8064128 8.06773448,16.9954692 13.5010415,16.9954692 Z" id="Path" fill="url(#linearGradient-3)"></path>
            </g>
            <g id="Group" transform="translate(5.000000, 16.000000)" fill="#FFFFFF">
                <path d="M4.30053995,6.55849685 L38.9580611,6.55849685 C38.9764733,6.21957667 38.9867023,5.87832485 38.9867023,5.5347414 C38.9867023,5.16301175 38.9728932,4.79461301 38.9512418,4.42771318 L0.0461327426,4.42771318 C0.0246518646,4.79411337 0.0106722457,5.16301175 0.0106722457,5.5347414 C0.0106722457,5.87832485 0.0209012352,6.21957667 0.0393134162,6.55849685 L4.30053995,6.55849685 Z M7.38355738,0.00293120155 L0.790632694,0.00293120155 C0.5739486,0.696759932 0.43415241,1.40857558 0.299811682,2.13388142 L38.6060134,2.13388142 C38.4735942,1.41425956 38.298555,0.702747689 38.0817777,0.00293120155 M36.1012749,8.85232861 L0.299470715,8.85232861 C0.430060814,9.57713481 0.578722128,10.2884508 0.791826076,10.9831123 L38.2092991,10.9831123 C38.4231782,10.2831988 38.5952582,9.5717393 38.7246697,8.85232861 L36.1012749,8.85232861 Z" id="Shape"></path>
            </g>
        </g>
    </g>
</svg>