<?xml version="1.0" encoding="UTF-8"?>
<svg width="44px" height="36px" viewBox="0 0 44 36" version="1.1" xmlns="http://www.w3.org/2000/svg" xmlns:xlink="http://www.w3.org/1999/xlink">
    <!-- Generator: Sketch 59.1 (86144) - https://sketch.com -->
    <title>Mobile</title>
    <desc>Created with Sketch.</desc>
    <g id="Mobile" stroke="none" stroke-width="1" fill="none" fill-rule="evenodd">
        <g id="devOps-icon" transform="translate(4.000000, 2.000000)" fill="#000000" fill-rule="nonzero">
            <g id="Group" transform="translate(23.000000, 0.000000)">
                <path d="M6.61111111,4.73684211 C5.1034188,4.73684211 3.88888889,5.96963563 3.88888889,7.5 C3.88888889,9.03036437 5.1034188,10.2631579 6.61111111,10.2631579 C8.11880342,10.2631579 9.33333333,9.03036437 9.33333333,7.5 C9.33333333,5.96963563 8.11880342,4.73684211 6.61111111,4.73684211 Z M6.61111111,9.41295547 C5.56410256,9.41295547 4.72649573,8.56275304 4.72649573,7.5 C4.72649573,6.43724696 5.56410256,5.58704453 6.61111111,5.58704453 C7.65811966,5.58704453 8.4957265,6.43724696 8.4957265,7.5 C8.4957265,8.56275304 7.65811966,9.41295547 6.61111111,9.41295547 Z" id="Shape"></path>
                <path d="M13.2611637,5.84677419 L12.2760487,5.58467742 C12.2002706,5.34274194 12.105548,5.10080645 12.0108254,4.87903226 L12.5223275,3.9516129 C12.541272,3.93145161 12.5602165,3.89112903 12.5602165,3.87096774 C12.7686062,3.52822581 12.7307172,3.04435484 12.4465494,2.74193548 L11.4424899,1.6733871 C11.2909337,1.51209677 11.1014885,1.43145161 10.8930988,1.43145161 C10.7225981,1.43145161 10.5331529,1.49193548 10.3247632,1.61290323 L9.45331529,2.15725806 C9.24492558,2.03629032 9.01759134,1.95564516 8.7902571,1.85483871 L8.54397835,0.786290323 C8.54397835,0.766129032 8.52503383,0.745967742 8.52503383,0.725806452 C8.44925575,0.302419355 8.1082544,0 7.69147497,0 L6.27063599,0 C5.87280108,0 5.56968877,0.282258065 5.43707713,0.786290323 L5.19079838,1.83467742 C4.96346414,1.91532258 4.73612991,2.01612903 4.52774019,2.11693548 L3.63734777,1.55241935 C3.61840325,1.53225806 3.59945873,1.53225806 3.58051421,1.51209677 C3.44790257,1.41129032 3.27740189,1.37096774 3.12584574,1.37096774 C2.8985115,1.37096774 2.69012179,1.4516129 2.51962111,1.63306452 L1.51556157,2.7016129 C1.23139378,3.00403226 1.21244926,3.42741935 1.45872801,3.89112903 L1.97023004,4.81854839 C1.85656292,5.04032258 1.78078484,5.28225806 1.68606225,5.52419355 L0.738836265,5.8266129 L0.700947226,5.84677419 C0.682002706,5.84677419 0.682002706,5.84677419 0.663058187,5.86693548 C0.265223275,5.94758065 0,6.31048387 0,6.75403226 L0,8.26612903 C0,8.68951613 0.284167794,9.01209677 0.738836265,9.15322581 L1.72395129,9.41532258 C1.79972936,9.65725806 1.89445196,9.87903226 1.98917456,10.1209677 L1.45872801,11.0685484 L1.43978349,11.1290323 C1.21244926,11.4919355 1.26928281,11.9556452 1.55345061,12.2580645 L2.55751015,13.3266129 C2.70906631,13.4879032 2.8985115,13.5685484 3.10690122,13.5685484 C3.27740189,13.5685484 3.46684709,13.5080645 3.67523681,13.3870968 L4.54668471,12.8427419 C4.75507442,12.9637097 4.98240866,13.0443548 5.2097429,13.1451613 L5.45602165,14.1935484 L5.47496617,14.2741935 C5.55074425,14.6975806 5.8917456,15 6.30852503,15 L7.72936401,15 C8.12719892,15 8.43031123,14.7177419 8.56292287,14.2137097 L8.80920162,13.1653226 C9.03653586,13.0846774 9.26387009,12.983871 9.47225981,12.8830645 L10.3626522,13.4475806 C10.3815968,13.4677419 10.4005413,13.4677419 10.4194858,13.4879032 C10.5520974,13.5887097 10.7225981,13.6290323 10.8741543,13.6290323 C11.1014885,13.6290323 11.3098782,13.5282258 11.4803789,13.3669355 L12.4844384,12.2983871 C12.6170501,12.1572581 12.8822733,11.7540323 12.541272,11.108871 L11.9918809,10.1008065 C12.105548,9.87903226 12.1813261,9.63709677 12.2760487,9.39516129 L13.2801083,9.13306452 C13.2990528,9.13306452 13.3179973,9.11290323 13.3369418,9.11290323 C13.7347767,9.03225806 14,8.66935484 14,8.22580645 L14,6.71370968 C14,6.31048387 13.7347767,5.98790323 13.2611637,5.84677419 Z M13.2422192,8.22580645 C13.2422192,8.26612903 13.2232747,8.30645161 13.1664411,8.30645161 L13.1285521,8.30645161 L13.0906631,8.3266129 C13.0906631,8.3266129 13.0717185,8.3266129 13.0717185,8.3266129 L12.0866035,8.58870968 L11.6887686,8.68951613 L11.556157,9.09274194 C11.4803789,9.29435484 11.4046008,9.49596774 11.3098782,9.69758065 L11.120433,10.1008065 L11.3288227,10.483871 L11.8403248,11.4112903 C11.8971583,11.5322581 11.9161028,11.6129032 11.8971583,11.6330645 L10.9120433,12.7217742 C10.8930988,12.7419355 10.8741543,12.7419355 10.8552097,12.7419355 C10.8362652,12.7419355 10.8173207,12.7419355 10.7983762,12.7217742 L10.7604871,12.7016129 L10.7225981,12.6814516 C10.7225981,12.6814516 10.7036536,12.6814516 10.7036536,12.6814516 C10.7036536,12.6814516 10.7036536,12.6814516 10.7036536,12.6814516 L9.83220568,12.1169355 L9.47225981,11.8951613 L9.11231394,12.0967742 C8.92286874,12.1975806 8.73342355,12.2782258 8.54397835,12.3387097 L8.14614344,12.4798387 L8.05142084,12.9032258 L7.78619756,13.9314516 C7.74830853,14.0725806 7.69147497,14.1129032 7.69147497,14.1330645 L6.27063599,14.1330645 C6.23274696,14.1330645 6.19485792,14.1129032 6.1759134,14.0524194 L6.1759134,14.0120968 L6.15696888,13.9717742 L6.15696888,13.9314516 L5.91069012,12.9032258 L5.81596752,12.4798387 L5.43707713,12.3387097 C5.24763194,12.2580645 5.05818674,12.1774194 4.86874154,12.0766129 L4.50879567,11.875 L4.1488498,12.0967742 L3.27740189,12.641129 C3.16373478,12.7016129 3.10690122,12.7016129 3.0879567,12.7016129 C3.0879567,12.7016129 3.0879567,12.7016129 3.0879567,12.7016129 C3.0879567,12.7016129 3.0879567,12.7016129 3.0879567,12.7016129 L3.0879567,12.7016129 L2.06495264,11.6532258 C2.0270636,11.6129032 2.0270636,11.5725806 2.04600812,11.5322581 L2.06495264,11.4919355 L2.08389716,11.4516129 L2.10284168,11.4112903 L2.63328823,10.5040323 L2.84167794,10.1209677 L2.67117727,9.73790323 C2.57645467,9.53629032 2.50067659,9.33467742 2.44384303,9.13306452 L2.31123139,8.70967742 L1.91339648,8.60887097 L0.928281461,8.3266129 C0.795669824,8.28629032 0.757780785,8.24596774 0.738836265,8.22580645 L0.738836265,6.71370968 C0.738836265,6.6733871 0.757780785,6.63306452 0.814614344,6.63306452 L0.852503383,6.63306452 L0.890392422,6.61290323 L0.909336942,6.61290323 L0.928281461,6.61290323 L1.89445196,6.35080645 L2.29228687,6.25 L2.42489851,5.84677419 C2.50067659,5.64516129 2.57645467,5.44354839 2.67117727,5.24193548 L2.86062246,4.85887097 L2.65223275,4.47580645 L2.14073072,3.5483871 C2.08389716,3.42741935 2.08389716,3.34677419 2.08389716,3.3266129 L3.0879567,2.25806452 C3.10690122,2.23790323 3.12584574,2.23790323 3.14479026,2.23790323 C3.16373478,2.23790323 3.1826793,2.23790323 3.1826793,2.25806452 L3.22056834,2.27822581 L3.25845737,2.2983871 C3.25845737,2.2983871 3.27740189,2.2983871 3.27740189,2.31854839 L4.1488498,2.84274194 L4.50879567,3.06451613 L4.86874154,2.86290323 C5.05818674,2.76209677 5.24763194,2.68145161 5.43707713,2.62096774 L5.83491204,2.47983871 L5.92963464,2.05645161 L6.1759134,1.02822581 C6.21380244,0.887096774 6.27063599,0.846774194 6.27063599,0.826612903 L7.69147497,0.826612903 C7.72936401,0.826612903 7.76725304,0.846774194 7.78619756,0.907258065 L7.78619756,0.947580645 L7.80514208,0.987903226 C7.80514208,0.987903226 7.80514208,1.00806452 7.80514208,1.00806452 L8.05142084,2.05645161 L8.14614344,2.47983871 L8.52503383,2.62096774 C8.71447903,2.7016129 8.90392422,2.78225806 9.09336942,2.88306452 L9.47225981,3.08467742 L9.83220568,2.86290323 L10.7036536,2.31854839 C10.8173207,2.25806452 10.8741543,2.25806452 10.8930988,2.25806452 C10.8930988,2.25806452 10.8930988,2.25806452 10.8930988,2.25806452 C10.8930988,2.25806452 10.8930988,2.25806452 10.8930988,2.25806452 C10.8930988,2.25806452 10.8930988,2.25806452 10.8930988,2.25806452 L11.8971583,3.3266129 C11.9161028,3.34677419 11.9350474,3.40725806 11.9161028,3.44758065 L11.8971583,3.48790323 L11.8782138,3.52822581 L11.8782138,3.52822581 L11.8782138,3.5483871 L11.8782138,3.56854839 L11.3477673,4.45564516 L11.1393775,4.83870968 L11.3288227,5.22177419 C11.4235453,5.4233871 11.4993234,5.625 11.556157,5.8266129 L11.6887686,6.25 L12.0866035,6.35080645 L13.0717185,6.61290323 C13.2043302,6.65322581 13.2422192,6.69354839 13.2611637,6.71370968 L13.2611637,8.22580645 L13.2422192,8.22580645 Z" id="Shape"></path>
            </g>
            <g id="noun_user-profile_2799221" transform="translate(0.000000, 3.000000)">
                <path d="M11.9906816,0 C16.1297957,0 19.4701335,3.3025641 19.4701335,7.39487179 C19.4701335,10.1230769 17.8725806,12.5641026 15.6214835,13.8564103 C19.9058297,15.1487179 23.2461674,18.7384615 23.9723278,23.3333333 C24.1175599,24.1948718 23.6818637,25.1282051 22.8830872,25.5589744 C19.8332137,27.2102564 15.9119476,28 11.9906816,28 C8.06941558,28 4.22076559,27.2102564 1.17089201,25.5589744 C0.299499563,25.1282051 -0.0635806243,24.2666667 0.00903541328,23.3333333 C0.807811826,18.7384615 4.14814955,15.1487179 8.43249577,13.8564103 C6.10878257,12.5641026 4.58384578,10.1230769 4.58384578,7.39487179 C4.58384578,3.3025641 7.9241835,0 11.9906816,0 Z M11.9906816,14.7179487 C6.83494294,14.6461538 2.33274861,18.5230769 1.46135616,23.5487179 C1.38874013,23.8358974 1.60658824,24.1948718 1.82443635,24.3384615 C4.65646182,25.774359 8.35987973,26.5641026 11.9906816,26.5641026 C15.6940995,26.5641026 19.3249014,25.774359 22.1569269,24.3384615 C22.447391,24.1230769 22.5926231,23.8358974 22.5200071,23.5487179 C21.7212306,18.5230769 17.2190363,14.6461538 11.9906816,14.7179487 Z M11.9906816,13.2820513 C15.3310193,13.2820513 18.0178127,10.625641 18.0178127,7.39487179 C18.0178127,4.09230769 15.3310193,1.43589744 11.9906816,1.43589744 C8.72295992,1.43589744 6.03616653,4.09230769 6.03616653,7.39487179 C6.03616653,10.625641 8.72295992,13.2820513 11.9906816,13.2820513 Z" id="Shape"></path>
            </g>
        </g>
    </g>
</svg>